<?xml version="1.0" encoding="utf-8"?>
<!-- Generator: Adobe Illustrator 27.7.0, SVG Export Plug-In . SVG Version: 6.00 Build 0)  -->
<svg version="1.1" id="Layer_1" xmlns="http://www.w3.org/2000/svg" xmlns:xlink="http://www.w3.org/1999/xlink" x="0px" y="0px"
	 viewBox="0 0 1857.52 316.59" style="enable-background:new 0 0 1857.52 316.59;" xml:space="preserve">
<style type="text/css">
	.st0{fill-rule:evenodd;clip-rule:evenodd;fill:#FFFFFF;}
	.st1{fill:#FFFFFF;}
</style>
<g>
	<g>
		<path class="st0" d="M150.85,196.69c-15.21,0-27.09-10.78-27.09-24.17v-45.58h20.42v47.47c0,5.97,5.21,10.74,11.9,10.74
			c6.28,0,11.91-4.77,11.91-10.74v-47.47h9.63v45.58C177.62,185.91,165.72,196.69,150.85,196.69 M93.28,169.18l-12.64-3.7
			c-7.77-2.61-13.34-10.38-13.34-18.92c0-11.19,8.92-20,20.05-20h24.91v8.81H94.79c-3.35,0-6.3,2.59-6.3,6.35
			c0,2.21,1.46,4.84,4.06,5.54l12.25,4.09c8.19,2.61,12.62,11.12,12.62,20.82c0,12.24-9.62,22.28-21.9,22.28H69.18v-10.04h22.65
			c3.32,0,7.03-3.34,7.03-7.75C98.86,173.25,96.63,170.32,93.28,169.18 M209.24,169.18l-12.66-3.7
			c-8.21-2.61-13.73-10.38-13.73-18.92c0-11.19,8.87-20,20.05-20h24.88v8.81h-17.43c-3.39,0-6.35,2.59-6.35,6.35
			c0,2.21,1.46,4.84,4.14,5.54l12.22,4.09c8.54,2.61,13.04,11.12,13.04,20.82c0,12.24-10.06,22.28-22.34,22.28h-26.35v-10.04h22.66
			c3.32,0,7.07-3.34,7.07-7.75C214.42,173.25,212.55,170.32,209.24,169.18"/>
		<path class="st0" d="M381.55,194.13h8.02v51.21c-0.98-5.33-3.96-36.5-3.59-46.47C384.96,197.85,381.55,194.13,381.55,194.13
			 M321.52,139.43L321.52,139.43l-8.56-8.71c-11.43,0.12-48.22-3.76-60.01-5.82v65.87c59.03,5.82,90,7.29,124.58,6.2h0.56
			L321.52,139.43z M321.95,121.07h65.93V57.19h-65.93V121.07z M270.8,124.9c4.38,0.38,42.96,3.75,45.57,3.75l61.09,62.12h78.52
			V124.9H270.8z M381.87,200.56c0,0-35.25,2.38-65.17-0.34c0.6,36.44,5,55.16,5.7,59.17h65.47
			C384.77,240.22,382.28,209.32,381.87,200.56"/>
	</g>
	<polygon class="st1" points="1081.47,147.29 1081.47,103.06 1061.91,133.26 1061.91,133.4 1049.72,133.4 1049.72,133.26 
		1029.99,102.8 1029.99,147.29 1008.23,147.29 1008.23,59.15 1024.45,59.15 1055.81,106.16 1087.06,59.15 1103.4,59.15 
		1103.4,147.29 	"/>
	<rect x="1123.21" y="59.11" class="st1" width="21.9" height="88.18"/>
	<polygon class="st1" points="1229.09,147.29 1186.83,98.92 1186.83,147.29 1164.91,147.29 1164.91,59.15 1181.64,59.15 
		1224.17,108.77 1224.17,59.15 1246.06,59.15 1246.06,147.29 	"/>
	<path class="st1" d="M1277.74,147.29h-23.31l37.25-88.18H1313l37.12,88.18h-23.22l-5.95-15.2h-37.38L1277.74,147.29z
		 M1290.88,113.45h22.82l-11.47-29.32L1290.88,113.45z"/>
	<g>
		<path class="st1" d="M1426.65,86.53h-22.05c-1.11-6.64-5.32-11.16-14.28-11.16c-7.51,0-12.57,3.09-12.57,8.82
			c0,4.8,3.48,6.88,10.13,8.28l12.3,2.88c16.06,3.49,26.58,9.99,26.58,25.14c0,17.64-14.52,28.66-36.54,28.66
			c-19.88,0-37.73-9.32-39.82-31.11h21.91c1.44,7.77,8.17,12.47,18.55,12.47c8.15,0,12.44-3.02,12.44-7.85
			c0-2.94-1.81-6.03-9.34-7.48l-14.5-3.24c-17.38-3.77-25.54-11.89-25.54-25.93c0-17.64,14.25-28.82,34.96-28.82
			C1403.19,57.19,1424.44,62.81,1426.65,86.53"/>
		<path class="st1" d="M1081.85,257.32l-0.91-10.63c-6.35,7.79-15.57,12.48-27.87,12.48c-27.6,0-46.89-19.75-46.89-45.04
			c0-27.45,20.17-46.82,47.15-46.82c21.56,0,40.2,12.2,43.98,33.21h-22.95c-3.88-10.18-12.7-13.06-20.64-13.06
			c-15.06,0-25.41,10.6-25.41,26.17c0,13.88,10.01,25.16,25.67,25.16c10.26,0,18.03-5.06,22.31-13.48l-25.28-0.31v-17.23h47.21
			v49.55H1081.85z"/>
		<polygon class="st1" points="1114.25,169.18 1114.25,257.32 1180.93,257.32 1180.93,238.23 1136.18,238.23 1136.18,222.95 
			1175.2,222.95 1175.2,204.32 1136.18,204.32 1136.18,188.24 1180.93,188.24 1180.93,169.18 		"/>
		<path class="st1" d="M1218.91,257.32h-21.93v-88.14h38.66c21.79,0,36.42,11.91,36.42,30.96c0,12.32-6.34,22.06-16.88,27.37
			l20.16,29.82h-26.44l-16.39-25.52h-13.61V257.32z M1250.28,200.14c0-7.13-6.76-11.68-15.22-11.68h-16.16v23.66h16.16
			C1243.53,212.12,1250.28,207.4,1250.28,200.14"/>
		<path class="st1" d="M1490.22,196.55h-22.05c-1.18-6.67-5.32-11.18-14.23-11.18c-7.53,0-12.62,3.09-12.62,8.8
			c0,4.82,3.54,6.87,10.13,8.33l12.31,2.85c16.09,3.47,26.58,9.98,26.58,25.14c0,17.67-14.52,28.67-36.56,28.67
			c-19.83,0-37.74-9.36-39.83-31.11h21.95c1.45,7.76,8.16,12.44,18.54,12.44c8.17,0,12.49-2.97,12.49-7.79
			c0-2.97-1.89-6.06-9.38-7.51l-14.54-3.25c-17.37-3.77-25.51-11.88-25.51-25.92c0-17.64,14.25-28.8,34.98-28.8
			C1466.75,167.21,1488.01,172.78,1490.22,196.55"/>
		<rect x="1380.26" y="169.18" class="st1" width="21.87" height="88.14"/>
		<path class="st1" d="M1326.12,194.16l11.43,29.35h-22.82L1326.12,194.16z M1315.56,169.18l-37.28,88.14h23.36l5.81-15.15h37.34
			l5.99,15.15h23.18l-37.15-88.14H1315.56z"/>
		<path class="st1" d="M1534.16,82.77c0-2.42,0.59-4.54,1.67-6.48c1.11-1.91,2.6-3.4,4.51-4.5c1.98-1.05,4.09-1.59,6.5-1.59
			c1.95,0,3.78,0.37,5.38,1.07c1.66,0.65,3.12,1.7,4.25,3.05c1.12,1.37,1.92,2.97,2.19,4.8h-6.21l-0.95-1.71l-1.37-1.07l-1.53-0.59
			l-1.63-0.19c-2.01,0-3.69,0.66-4.94,1.97c-1.24,1.29-1.87,3.01-1.87,5.09c0,1.94,0.63,3.52,1.9,4.79c1.23,1.35,2.9,2,4.97,2
			c1.33,0,2.52-0.36,3.6-0.95c0.99-0.64,1.79-1.54,2.4-2.69l-6.8-0.07v-4.61h12.72v13.29h-4.41l-0.27-2.85
			c-1.81,2.21-4.32,3.35-7.49,3.35c-2.43,0-4.6-0.57-6.55-1.61c-1.92-1.09-3.4-2.54-4.49-4.4
			C1534.71,87.05,1534.16,85.04,1534.16,82.77"/>
		<path class="st1" d="M1575.88,77.66c-1.21,1.33-1.87,3.03-1.87,4.91c0,1.86,0.66,3.48,1.87,4.8c1.29,1.36,2.83,2.03,4.72,2.03
			c1.89,0,3.45-0.66,4.72-2.03c1.24-1.31,1.87-2.94,1.87-4.8c0-1.88-0.63-3.58-1.87-4.91c-1.27-1.33-2.83-1.99-4.72-1.99
			C1578.71,75.68,1577.18,76.34,1575.88,77.66 M1569.71,88.76c-1.11-1.88-1.61-3.96-1.61-6.18c0-2.3,0.5-4.36,1.61-6.24
			c1.12-1.94,2.62-3.41,4.54-4.51c1.92-1.05,4.04-1.64,6.35-1.64c1.76,0,3.43,0.33,4.95,0.99c1.56,0.64,2.92,1.52,4.01,2.57
			c1.11,1.12,1.96,2.42,2.62,3.97c0.64,1.48,0.99,3.15,0.99,4.86c0,1.62-0.34,3.31-0.99,4.8c-0.66,1.49-1.51,2.8-2.62,3.89
			c-1.09,1.12-2.45,2-4.01,2.62c-1.52,0.67-3.2,0.97-4.95,0.97c-2.32,0-4.43-0.56-6.35-1.65
			C1572.33,92.15,1570.83,90.68,1569.71,88.76"/>
		<polygon class="st1" points="1599.45,70.69 1605.93,70.69 1612.7,86.72 1619.41,70.69 1625.91,70.69 1615.7,94.52 1609.72,94.52 
					"/>
		<polygon class="st1" points="1634.99,94.37 1634.99,70.69 1652.92,70.69 1652.92,75.8 1640.89,75.8 1640.89,80.1 1651.37,80.1 
			1651.37,85.15 1640.89,85.15 1640.89,89.24 1652.92,89.24 1652.92,94.37 		"/>
		<path class="st1" d="M1669.24,82.21h4.35c1.14,0,2.13-0.31,2.88-0.86c0.76-0.62,1.18-1.38,1.18-2.31c0-0.95-0.42-1.74-1.18-2.29
			c-0.74-0.57-1.74-0.82-2.88-0.82h-4.35V82.21z M1663.33,94.37V70.69h10.35c3.01,0,5.38,0.73,7.17,2.24
			c1.74,1.51,2.66,3.55,2.66,6.1c0,1.51-0.34,2.87-1.03,4.08c-0.71,1.28-1.71,2.25-2.95,2.99l5.59,8.27h-6.89l-4.54-6.84h-4.43v6.84
			H1663.33z"/>
		<polygon class="st1" points="1693.73,94.37 1693.73,70.69 1698.22,70.69 1709.64,84.02 1709.64,70.69 1715.48,70.69 
			1715.48,94.37 1710.99,94.37 1699.6,81.36 1699.6,94.37 		"/>
		<path class="st1" d="M1732.41,77.66c-1.26,1.33-1.87,3.03-1.87,4.91c0,1.86,0.61,3.48,1.87,4.8c1.24,1.36,2.86,2.03,4.7,2.03
			c1.89,0,3.49-0.66,4.73-2.03c1.21-1.31,1.87-2.94,1.87-4.8c0-1.88-0.66-3.58-1.87-4.91c-1.24-1.33-2.84-1.99-4.73-1.99
			C1735.26,75.68,1733.65,76.34,1732.41,77.66 M1726.24,88.76c-1.14-1.88-1.65-3.96-1.65-6.18c0-2.3,0.51-4.36,1.65-6.24
			c1.05-1.94,2.59-3.41,4.54-4.51c1.9-1.05,4.01-1.64,6.33-1.64c1.78,0,3.44,0.33,4.98,0.99c1.54,0.64,2.87,1.52,4.03,2.57
			c1.09,1.12,1.94,2.42,2.61,3.97c0.57,1.48,0.91,3.15,0.91,4.86c0,1.62-0.35,3.31-0.91,4.8c-0.67,1.49-1.52,2.8-2.61,3.89
			c-1.15,1.12-2.49,2-4.03,2.62c-1.55,0.67-3.2,0.97-4.98,0.97c-2.32,0-4.43-0.56-6.33-1.65
			C1728.83,92.15,1727.29,90.68,1726.24,88.76"/>
		<polygon class="st1" points="1534.76,195.23 1534.76,171.58 1552.64,171.58 1552.64,176.66 1540.61,176.66 1540.61,180.98 
			1551.14,180.98 1551.14,186.02 1540.61,186.02 1540.61,190.14 1552.64,190.14 1552.64,195.23 		"/>
		<path class="st1" d="M1561.49,187.32h5.91c0.2,1.09,0.75,1.88,1.59,2.49c0.9,0.62,1.99,0.92,3.37,0.92c1.08,0,1.9-0.17,2.46-0.59
			l0.91-1.55c0-1.09-0.84-1.77-2.5-2.06l-3.9-0.82c-2.38-0.53-4.09-1.36-5.17-2.46c-1.18-1.09-1.68-2.6-1.68-4.43
			c0-2.4,0.85-4.3,2.56-5.68c1.74-1.4,4-2.07,6.8-2.07c0.86,0,1.66,0.07,2.46,0.2c0.8,0.1,1.68,0.33,2.55,0.75
			c0.91,0.34,1.72,0.81,2.4,1.4c0.64,0.53,1.29,1.29,1.75,2.23c0.47,0.93,0.82,2.03,0.94,3.23h-5.86c-0.39-2.11-1.66-3.15-3.91-3.15
			c-1.06,0-1.92,0.26-2.51,0.66l-0.94,1.81l0.72,1.5c0.44,0.3,1.17,0.59,2.14,0.82l3.31,0.78c2.3,0.5,4.07,1.26,5.3,2.3
			c1.18,1,1.75,2.5,1.75,4.4c0,2.38-0.84,4.27-2.66,5.68c-1.74,1.33-4.1,2.04-7.07,2.04c-1.38,0-2.67-0.17-3.87-0.49
			c-1.22-0.33-2.27-0.85-3.27-1.47c-1-0.72-1.78-1.55-2.42-2.68C1562.04,190,1561.66,188.7,1561.49,187.32"/>
		<polygon class="st1" points="1589.12,176.89 1589.12,171.58 1610.04,171.58 1610.04,176.89 1602.55,176.89 1602.55,195.25 
			1596.62,195.25 1596.62,176.89 		"/>
		<path class="st1" d="M1624.39,186.17h6.09l-3.06-7.86L1624.39,186.17z M1614.61,195.23l10.01-23.84h5.65l10.03,23.84h-6.29
			l-1.59-4.06h-10.02l-1.55,4.06H1614.61z"/>
		<path class="st1" d="M1655.64,189.97h3.62c1.89,0,3.53-0.64,4.8-1.92c1.33-1.32,1.96-2.82,1.96-4.7c0-1.85-0.63-3.35-1.96-4.63
			c-1.28-1.21-2.92-1.87-4.8-1.87h-3.62V189.97z M1649.77,195.23v-23.65h9.47c1.84,0,3.52,0.27,5.11,0.83
			c1.58,0.62,2.96,1.38,4.06,2.43c1.13,1.04,2,2.3,2.61,3.73c0.66,1.42,1.02,3.08,1.02,4.77c0,1.71-0.36,3.34-1.02,4.8
			c-0.6,1.45-1.47,2.75-2.61,3.78c-1.1,1.07-2.48,1.87-4.06,2.45c-1.59,0.59-3.27,0.85-5.11,0.85H1649.77z"/>
		<path class="st1" d="M1687.38,178.58c-1.22,1.35-1.88,2.96-1.88,4.82c0,1.92,0.66,3.52,1.88,4.84c1.26,1.34,2.82,2.02,4.69,2.02
			c1.92,0,3.49-0.68,4.69-2.02c1.28-1.32,1.89-2.92,1.89-4.84c0-1.86-0.61-3.47-1.89-4.82c-1.2-1.37-2.78-2.02-4.69-2.02
			C1690.2,176.56,1688.64,177.21,1687.38,178.58 M1681.2,189.6c-1.12-1.88-1.67-3.89-1.67-6.21c0-2.21,0.56-4.35,1.67-6.2
			c1.11-1.91,2.58-3.44,4.46-4.46c1.95-1.14,4.07-1.62,6.41-1.62c1.77,0,3.42,0.26,4.97,0.92c1.57,0.64,2.89,1.51,3.99,2.63
			c1.11,1.08,1.96,2.38,2.63,3.92c0.63,1.51,0.96,3.15,0.96,4.82c0,1.69-0.34,3.34-0.96,4.84c-0.67,1.5-1.52,2.85-2.63,3.97
			c-1.1,1.02-2.42,1.94-3.99,2.56c-1.55,0.65-3.2,0.98-4.97,0.98c-2.34,0-4.47-0.57-6.41-1.6
			C1683.78,193,1682.31,191.55,1681.2,189.6"/>
		<path class="st1" d="M1539.43,140.9h4.76c2.38,0,4.32-0.75,5.93-2.3c1.61-1.55,2.39-3.48,2.39-5.75c0-2.24-0.79-4.08-2.39-5.64
			c-1.62-1.48-3.56-2.23-5.93-2.23h-4.76V140.9z M1535.32,144.8v-23.7h8.84c2.42,0,4.54,0.56,6.47,1.51
			c1.95,1.05,3.45,2.45,4.52,4.25c1.1,1.78,1.63,3.77,1.63,6c0,2.25-0.53,4.32-1.63,6.1c-1.07,1.84-2.58,3.27-4.52,4.3
			c-1.93,1.04-4.05,1.55-6.47,1.55H1535.32z"/>
		<rect x="1565.49" y="121.1" class="st1" width="4.16" height="23.72"/>
		<polygon class="st1" points="1581.71,144.8 1581.71,121.1 1598.58,121.1 1598.58,124.98 1585.87,124.98 1585.87,131.83 
			1597.08,131.83 1597.08,135.68 1585.87,135.68 1585.87,144.8 		"/>
		<polygon class="st1" points="1608.9,144.8 1608.9,121.1 1626.12,121.1 1626.12,124.98 1613.09,124.98 1613.09,131.19 
			1624.68,131.19 1624.68,135.06 1613.09,135.06 1613.09,140.9 1626.12,140.9 1626.12,144.8 		"/>
		<path class="st1" d="M1641.42,133.14h5.43c1.46,0,2.77-0.38,3.74-1.12c0.96-0.74,1.47-1.69,1.47-2.97c0-1.21-0.5-2.2-1.47-2.94
			c-1.02-0.78-2.28-1.12-3.74-1.12h-5.43V133.14z M1637.26,144.8v-23.7h9.73c2.68,0,4.87,0.75,6.66,2.21
			c1.73,1.41,2.56,3.35,2.56,5.74c0,1.73-0.41,3.19-1.32,4.46c-0.9,1.27-2.14,2.17-3.74,2.79l6.47,8.5h-5.08l-5.85-7.75h-5.26v7.75
			H1637.26z"/>
		<polygon class="st1" points="1667.87,144.8 1667.87,121.1 1685.08,121.1 1685.08,124.98 1672.03,124.98 1672.03,131.19 
			1683.7,131.19 1683.7,135.06 1672.03,135.06 1672.03,140.9 1685.08,140.9 1685.08,144.8 		"/>
		<polygon class="st1" points="1694.88,144.8 1694.88,121.1 1698.07,121.1 1711.67,137.46 1711.67,121.1 1715.84,121.1 
			1715.84,144.8 1712.55,144.8 1699.06,128.85 1699.06,144.8 		"/>
		<polygon class="st1" points="1726.88,124.98 1726.88,121.1 1747.52,121.1 1747.52,124.98 1739.3,124.98 1739.3,144.82 
			1735.12,144.82 1735.12,124.98 		"/>
		<polygon class="st1" points="1757.49,144.8 1757.49,121.1 1774.66,121.1 1774.66,124.98 1761.65,124.98 1761.65,131.19 
			1773.28,131.19 1773.28,135.06 1761.65,135.06 1761.65,140.9 1774.66,140.9 1774.66,144.8 		"/>
		<polygon class="st1" points="1785.2,142.93 1785.92,141.21 1787.69,140.56 1789.48,141.21 1790.22,142.93 1789.48,144.72 
			1787.69,145.39 1785.92,144.72 		"/>
		<polygon class="st1" points="1773.05,243.73 1773.75,242 1775.54,241.31 1777.3,242 1778.07,243.73 1777.3,245.47 1775.54,246.18 
			1773.75,245.47 		"/>
		<polygon class="st1" points="1535.32,245.68 1535.32,221.96 1552.49,221.96 1552.49,225.87 1539.43,225.87 1539.43,232.07 
			1551.1,232.07 1551.1,235.92 1539.43,235.92 1539.43,241.83 1552.49,241.83 1552.49,245.68 		"/>
		<polygon class="st1" points="1563.51,245.68 1563.51,221.96 1580.44,221.96 1580.44,225.87 1567.68,225.87 1567.68,232.69 
			1578.88,232.69 1578.88,236.56 1567.68,236.56 1567.68,245.68 		"/>
		<rect x="1590.61" y="221.96" class="st1" width="4.21" height="23.7"/>
		<rect x="1639.54" y="221.96" class="st1" width="4.18" height="23.7"/>
		<polygon class="st1" points="1655.41,245.68 1655.41,221.96 1672.61,221.96 1672.61,225.87 1659.58,225.87 1659.58,232.07 
			1671.22,232.07 1671.22,235.92 1659.58,235.92 1659.58,241.83 1672.61,241.83 1672.61,245.68 		"/>
		<polygon class="st1" points="1683.78,245.68 1683.78,221.96 1686.93,221.96 1700.54,238.35 1700.54,221.96 1704.75,221.96 
			1704.75,245.68 1701.39,245.68 1687.93,229.72 1687.93,245.68 		"/>
		<polygon class="st1" points="1714.39,225.87 1714.39,221.96 1735.03,221.96 1735.03,225.87 1726.82,225.87 1726.82,245.68 
			1722.66,245.68 1722.66,225.87 		"/>
		<polygon class="st1" points="1746.14,245.68 1746.14,221.96 1763.33,221.96 1763.33,225.87 1750.28,225.87 1750.28,232.07 
			1761.95,232.07 1761.95,235.92 1750.28,235.92 1750.28,241.83 1763.33,241.83 1763.33,245.68 		"/>
		<path class="st1" d="M1624.63,237.82h4.5c-0.68,2.33-1.95,4.2-3.69,5.72c-2.14,1.73-4.69,2.64-7.69,2.64
			c-1.37,0-2.7-0.17-3.9-0.61c-1.33-0.39-2.46-0.98-3.48-1.71c-1.04-0.71-1.95-1.59-2.7-2.55c-0.76-1.04-1.35-2.16-1.77-3.42
			c-0.45-1.3-0.65-2.62-0.65-4.03c0-1.41,0.2-2.75,0.65-4.03c0.42-1.3,1-2.42,1.77-3.4c0.75-0.99,1.66-1.91,2.7-2.61
			c1.02-0.76,2.15-1.33,3.48-1.71c1.2-0.39,2.53-0.61,3.9-0.61c3,0,5.55,0.9,7.69,2.65c1.78,1.5,3.01,3.37,3.69,5.75h-4.5
			c-0.49-1.19-1.19-2.14-2.14-2.9c-1.27-0.98-2.89-1.48-4.74-1.48c-2.37,0-4.32,0.81-5.82,2.35c-1.58,1.55-2.36,3.52-2.36,6
			c0,2.43,0.77,4.46,2.36,5.94c1.5,1.58,3.45,2.4,5.82,2.4c1.85,0,3.47-0.53,4.74-1.54C1623.44,239.95,1624.14,239,1624.63,237.82"
			/>
		<path class="st1" d="M565.88,162.55h6.62c0.25,1.16,0.82,2.11,1.77,2.78c0.98,0.71,2.22,1.04,3.78,1.04
			c1.15,0,2.12-0.24,2.75-0.66l0.97-1.76c0-1.21-0.92-1.94-2.78-2.3l-4.31-0.94c-2.69-0.6-4.6-1.47-5.83-2.71
			c-1.24-1.25-1.88-2.9-1.88-4.98c0-2.66,0.97-4.75,2.9-6.31c1.89-1.57,4.39-2.32,7.59-2.32c0.89,0,1.82,0.06,2.74,0.2
			c0.91,0.15,1.88,0.38,2.84,0.82c1.01,0.38,1.89,0.92,2.69,1.58c0.77,0.61,1.41,1.41,1.96,2.5c0.56,1.07,0.92,2.3,1.08,3.62h-6.6
			c-0.42-2.35-1.88-3.54-4.35-3.54c-1.22,0-2.17,0.27-2.83,0.76c-0.73,0.45-1.03,1.12-1.03,1.97l0.77,1.73
			c0.5,0.34,1.3,0.69,2.44,0.91l3.67,0.85c2.59,0.57,4.53,1.42,5.89,2.59c1.39,1.16,2.05,2.79,2.05,4.91c0,2.69-1.03,4.78-2.97,6.33
			c-2.02,1.54-4.66,2.3-7.94,2.3c-1.51,0-3-0.17-4.35-0.55c-1.33-0.38-2.53-0.93-3.65-1.71c-1.14-0.71-2-1.71-2.7-2.92
			C566.47,165.53,566.03,164.15,565.88,162.55"/>
		<path class="st1" d="M590.93,171.39l11.25-26.62h6.32l11.21,26.62h-7.03l-1.78-4.54h-11.2l-1.75,4.54H590.93z M601.87,161.27h6.84
			l-3.43-8.81L601.87,161.27z"/>
		<path class="st1" d="M621.36,159.09v-14.13h6.68v14.25c0,2.06,0.51,3.64,1.53,4.87c1.03,1.21,2.41,1.81,4.11,1.81
			c1.74,0,3.14-0.6,4.18-1.81c1.03-1.23,1.53-2.82,1.53-4.87v-14.25h6.59v14.13c0,4.05-1.1,7.21-3.27,9.49
			c-2.21,2.26-5.22,3.44-9.03,3.44c-3.76,0-6.8-1.18-9.01-3.44C622.47,166.29,621.36,163.14,621.36,159.09 M630.86,142.23l3.11-6.22
			h6.6l-3.86,6.22H630.86z"/>
		<path class="st1" d="M651.28,171.39v-26.44h10.59c2.03,0,3.95,0.29,5.76,0.96c1.71,0.64,3.21,1.54,4.5,2.68
			c1.27,1.18,2.23,2.51,2.94,4.17c0.67,1.62,1.06,3.4,1.06,5.34c0,1.95-0.38,3.73-1.06,5.39c-0.71,1.62-1.67,3.08-2.94,4.21
			c-1.29,1.17-2.79,2.09-4.5,2.69c-1.81,0.71-3.74,0.99-5.76,0.99H651.28z M657.85,165.5h4.04c2.14,0,3.98-0.72,5.4-2.1
			c1.45-1.45,2.18-3.16,2.18-5.29c0-2.09-0.73-3.77-2.18-5.18c-1.42-1.38-3.26-2.04-5.4-2.04h-4.04V165.5z"/>
		<polygon class="st1" points="680.93,171.43 680.93,144.96 700.94,144.96 700.94,150.66 687.51,150.66 687.51,155.52 
			699.21,155.52 699.21,161.08 687.51,161.08 687.51,165.69 700.94,165.69 700.94,171.43 		"/>
	</g>
	<path class="st1" d="M755.1,257.29h198.22V59.06H755.1V257.29z M854.2,94.02l26.74,37.21l-26.74,37.22l-26.74-37.22L854.2,94.02z
		 M767.61,214.53l55.61-77.39l26.74,37.22l-28.87,40.17H767.61z M829.58,214.53l24.62-34.26l24.62,34.26H829.58z M887.31,214.53
		l-28.86-40.17l26.74-37.22l55.6,77.39H887.31z"/>
</g>
</svg>
