<?xml version="1.0" encoding="UTF-8"?>
<svg id="Camada_1" data-name="Camada 1" xmlns="http://www.w3.org/2000/svg" xmlns:xlink="http://www.w3.org/1999/xlink" viewBox="0 0 708.29 322.3">
  <defs>
    <style>
      .cls-1 {
        fill: #0d94cc;
      }

      .cls-2 {
        fill: #8fc08c;
      }

      .cls-3 {
        fill: url(#Gradiente_sem_nome_153);
      }

      .cls-4 {
        fill: #0f95cb;
      }
    </style>
    <linearGradient id="Gradiente_sem_nome_153" data-name="Gradiente sem nome 153" x1="209.13" y1="237.22" x2="209.13" y2="52.56" gradientUnits="userSpaceOnUse">
      <stop offset="0" stop-color="#57b5e4"/>
      <stop offset="0" stop-color="#0090d3"/>
      <stop offset="1" stop-color="#a6c880"/>
    </linearGradient>
  </defs>
  <g>
    <path class="cls-1" d="m319.62,216.02l-5.51,15.54h-4.74l-5.51-15.54h4.03l3.85,11.74,3.88-11.74h4.01Z"/>
    <path class="cls-1" d="m324.98,216.02v15.54h-3.79v-15.54h3.79Z"/>
    <path class="cls-1" d="m338.05,220.94c-.28-.52-.68-.91-1.21-1.18-.52-.27-1.14-.41-1.85-.41-1.23,0-2.21.4-2.95,1.21s-1.11,1.88-1.11,3.22c0,1.43.39,2.55,1.16,3.35.77.8,1.84,1.21,3.2,1.21.93,0,1.72-.24,2.36-.71.64-.47,1.11-1.15,1.41-2.04h-4.8v-2.79h8.24v3.52c-.28.94-.76,1.82-1.43,2.63-.67.81-1.52,1.47-2.56,1.97-1.03.5-2.2.75-3.5.75-1.54,0-2.9-.34-4.11-1.01-1.2-.67-2.14-1.6-2.81-2.8s-1.01-2.56-1.01-4.1.34-2.9,1.01-4.11,1.61-2.14,2.8-2.81c1.2-.67,2.56-1.01,4.1-1.01,1.86,0,3.43.45,4.71,1.35,1.28.9,2.12,2.15,2.54,3.74h-4.18Z"/>
    <path class="cls-1" d="m348.39,216.02v15.54h-3.79v-15.54h3.79Z"/>
    <path class="cls-1" d="m354.92,228.64h4.96v2.92h-8.75v-15.54h3.79v12.62Z"/>
    <path class="cls-1" d="m371.37,228.82h-5.8l-.93,2.75h-3.96l5.62-15.54h4.38l5.62,15.54h-4.01l-.93-2.75Zm-2.88-15.5l-3.43,1.82v-2.61l3.43-1.75,3.43,1.75v2.61l-3.43-1.82Zm1.9,12.58l-1.93-5.69-1.9,5.69h3.83Z"/>
    <path class="cls-1" d="m391.92,231.57h-3.79l-6.33-9.59v9.59h-3.79v-15.54h3.79l6.33,9.63v-9.63h3.79v15.54Z"/>
    <path class="cls-1" d="m395.02,219.67c.66-1.2,1.59-2.14,2.78-2.81,1.19-.67,2.54-1.01,4.04-1.01,1.84,0,3.42.49,4.74,1.46s2.19,2.3,2.63,3.99h-4.16c-.31-.65-.75-1.14-1.32-1.48-.57-.34-1.21-.51-1.94-.51-1.17,0-2.11.41-2.83,1.22-.72.81-1.08,1.9-1.08,3.25s.36,2.44,1.08,3.25c.72.81,1.67,1.22,2.83,1.22.72,0,1.37-.17,1.94-.51.57-.34,1.01-.83,1.32-1.48h4.16c-.44,1.68-1.32,3.01-2.63,3.97-1.31.97-2.89,1.45-4.74,1.45-1.51,0-2.85-.34-4.04-1.01-1.19-.67-2.11-1.6-2.78-2.8-.67-1.2-1-2.56-1-4.1s.33-2.9,1-4.11Z"/>
    <path class="cls-1" d="m415.32,216.02v15.54h-3.79v-15.54h3.79Z"/>
    <path class="cls-1" d="m427.74,228.82h-5.8l-.93,2.75h-3.96l5.62-15.54h4.38l5.62,15.54h-4.01l-.93-2.75Zm-.97-2.92l-1.93-5.69-1.9,5.69h3.83Z"/>
    <path class="cls-1" d="m441.65,231.17c-.9-.37-1.62-.92-2.16-1.64-.54-.72-.82-1.59-.85-2.61h4.03c.06.58.26,1.02.6,1.32.34.3.78.45,1.33.45s1-.13,1.33-.39c.32-.26.49-.62.49-1.07,0-.38-.13-.7-.39-.95-.26-.25-.58-.46-.95-.62-.38-.16-.91-.35-1.61-.55-1-.31-1.82-.62-2.46-.93s-1.18-.77-1.64-1.37c-.46-.6-.69-1.4-.69-2.37,0-1.45.52-2.58,1.57-3.4,1.05-.82,2.41-1.23,4.1-1.23s3.09.41,4.14,1.23,1.61,1.96,1.68,3.42h-4.1c-.03-.5-.21-.9-.55-1.18-.34-.29-.78-.43-1.31-.43-.46,0-.83.12-1.11.37-.28.24-.42.59-.42,1.05,0,.5.24.89.71,1.17s1.21.58,2.21.91c1,.34,1.82.66,2.45.97.63.31,1.17.76,1.63,1.35.46.59.69,1.35.69,2.28s-.22,1.69-.67,2.41c-.45.72-1.1,1.3-1.96,1.73-.86.43-1.87.64-3.03.64s-2.16-.18-3.06-.55Z"/>
    <path class="cls-1" d="m462.37,228.82h-5.8l-.93,2.75h-3.96l5.62-15.54h4.38l5.62,15.54h-4.01l-.93-2.75Zm-.97-2.92l-1.93-5.69-1.9,5.69h3.83Z"/>
    <path class="cls-1" d="m482.92,231.57h-3.79l-6.33-9.59v9.59h-3.79v-15.54h3.79l6.33,9.63v-9.63h3.79v15.54Z"/>
    <path class="cls-1" d="m489.46,216.02v15.54h-3.79v-15.54h3.79Z"/>
    <path class="cls-1" d="m503.38,216.02v3.03h-4.12v12.51h-3.79v-12.51h-4.12v-3.03h12.02Z"/>
    <path class="cls-1" d="m514.96,228.82h-5.8l-.93,2.75h-3.96l5.62-15.54h4.38l5.62,15.54h-4.01l-.93-2.75Zm-.31-15.92l-5.34,2.24v-2.61l5.34-2.57v2.94Zm-.66,13l-1.93-5.69-1.9,5.69h3.83Z"/>
    <path class="cls-1" d="m529.53,231.57l-3.23-5.87h-.91v5.87h-3.79v-15.54h6.35c1.23,0,2.27.21,3.13.64.86.43,1.51,1.02,1.94,1.76.43.75.64,1.58.64,2.49,0,1.03-.29,1.96-.88,2.77-.58.81-1.44,1.39-2.58,1.73l3.59,6.16h-4.27Zm-4.14-8.55h2.35c.69,0,1.21-.17,1.56-.51.35-.34.52-.82.52-1.44s-.17-1.06-.52-1.4c-.35-.34-.87-.51-1.56-.51h-2.35v3.85Z"/>
    <path class="cls-1" d="m539.83,216.02v15.54h-3.79v-15.54h3.79Z"/>
    <path class="cls-1" d="m552.25,228.82h-5.8l-.93,2.75h-3.96l5.62-15.54h4.38l5.62,15.54h-4.01l-.93-2.75Zm-.97-2.92l-1.93-5.69-1.9,5.69h3.83Z"/>
    <path class="cls-1" d="m312.43,240.4c.98.5,1.74,1.22,2.28,2.15.54.94.8,2.03.8,3.28s-.27,2.33-.8,3.25c-.54.92-1.3,1.62-2.28,2.11-.98.49-2.13.73-3.43.73h-4.01v-12.27h4.01c1.31,0,2.45.25,3.43.75Zm-.13,8.71c.77-.78,1.15-1.87,1.15-3.28s-.38-2.54-1.15-3.34c-.76-.8-1.87-1.2-3.3-1.2h-2v8.99h2c1.44,0,2.54-.39,3.3-1.17Z"/>
    <path class="cls-1" d="m319.95,251.24c-.96-.54-1.72-1.28-2.28-2.24-.56-.96-.84-2.04-.84-3.24s.28-2.28.84-3.23c.56-.95,1.32-1.7,2.28-2.23.96-.54,2.01-.8,3.15-.8s2.21.27,3.17.8c.96.54,1.72,1.28,2.27,2.23.55.95.83,2.03.83,3.23s-.28,2.28-.83,3.24c-.55.96-1.31,1.71-2.27,2.24-.96.54-2.02.8-3.17.8s-2.19-.27-3.15-.8Zm5.32-1.5c.63-.37,1.13-.9,1.49-1.59.36-.69.54-1.49.54-2.39s-.18-1.7-.54-2.38c-.36-.68-.86-1.21-1.49-1.57-.64-.36-1.36-.55-2.17-.55s-1.54.18-2.17.55c-.64.37-1.13.89-1.49,1.57-.36.68-.54,1.48-.54,2.38s.18,1.7.54,2.39c.36.69.86,1.22,1.49,1.59.64.37,1.36.56,2.17.56s1.54-.19,2.17-.56Z"/>
    <path class="cls-1" d="m337.95,241.27v3.6h4.24v1.64h-4.24v3.76h4.77v1.64h-6.78v-12.29h6.78v1.64h-4.77Z"/>
    <path class="cls-1" d="m347.01,251.61c-.66-.29-1.18-.7-1.55-1.23s-.56-1.15-.56-1.85h2.15c.05.53.26.97.63,1.31s.89.51,1.56.51,1.24-.17,1.62-.5c.39-.34.58-.77.58-1.3,0-.41-.12-.75-.36-1.01-.24-.26-.54-.46-.9-.6-.36-.14-.86-.29-1.49-.46-.8-.21-1.45-.43-1.95-.64-.5-.22-.93-.56-1.28-1.02-.35-.46-.53-1.07-.53-1.84,0-.71.18-1.32.53-1.85.35-.53.85-.94,1.48-1.22.64-.28,1.37-.42,2.21-.42,1.19,0,2.16.3,2.92.89.76.59,1.18,1.41,1.26,2.45h-2.22c-.04-.45-.25-.83-.64-1.15s-.9-.48-1.54-.48c-.58,0-1.05.15-1.41.44-.37.29-.55.72-.55,1.27,0,.38.11.69.34.93.23.24.52.43.87.57.35.14.84.29,1.45.46.81.22,1.47.45,1.99.67.51.22.95.57,1.31,1.03.36.47.54,1.09.54,1.86,0,.62-.17,1.21-.5,1.77-.34.55-.82,1-1.47,1.33-.64.34-1.4.5-2.27.5-.82,0-1.57-.14-2.22-.43Z"/>
    <path class="cls-1" d="m363.79,239.64v1.64h-3.27v10.63h-2.01v-10.63h-3.29v-1.64h8.56Z"/>
    <path class="cls-1" d="m373.22,249.41h-5.14l-.88,2.51h-2.1l4.4-12.29h2.33l4.4,12.29h-2.12l-.88-2.51Zm-.57-1.64l-2-5.7-2.01,5.7h4.01Z"/>
    <path class="cls-1" d="m385.57,240.4c.98.5,1.74,1.22,2.28,2.15.54.94.8,2.03.8,3.28s-.27,2.33-.8,3.25c-.54.92-1.3,1.62-2.28,2.11-.98.49-2.13.73-3.43.73h-4.01v-12.27h4.01c1.31,0,2.45.25,3.43.75Zm-.13,8.71c.77-.78,1.15-1.87,1.15-3.28s-.38-2.54-1.15-3.34c-.76-.8-1.87-1.2-3.3-1.2h-2v8.99h2c1.44,0,2.54-.39,3.3-1.17Z"/>
    <path class="cls-1" d="m393.09,251.24c-.96-.54-1.72-1.28-2.28-2.24-.56-.96-.84-2.04-.84-3.24s.28-2.28.84-3.23c.56-.95,1.32-1.7,2.28-2.23.96-.54,2.01-.8,3.15-.8s2.21.27,3.17.8c.96.54,1.72,1.28,2.27,2.23.55.95.83,2.03.83,3.23s-.28,2.28-.83,3.24c-.55.96-1.31,1.71-2.27,2.24-.96.54-2.02.8-3.17.8s-2.19-.27-3.15-.8Zm5.32-1.5c.63-.37,1.13-.9,1.49-1.59.36-.69.54-1.49.54-2.39s-.18-1.7-.54-2.38c-.36-.68-.86-1.21-1.49-1.57-.64-.36-1.36-.55-2.17-.55s-1.54.18-2.17.55c-.64.37-1.13.89-1.49,1.57-.36.68-.54,1.48-.54,2.38s.18,1.7.54,2.39c.36.69.86,1.22,1.49,1.59.64.37,1.36.56,2.17.56s1.54-.19,2.17-.56Z"/>
    <path class="cls-1" d="m416.52,240.4c.98.5,1.74,1.22,2.28,2.15.54.94.8,2.03.8,3.28s-.27,2.33-.8,3.25c-.54.92-1.3,1.62-2.28,2.11-.98.49-2.13.73-3.43.73h-4.01v-12.27h4.01c1.31,0,2.45.25,3.43.75Zm-.13,8.71c.77-.78,1.15-1.87,1.15-3.28s-.38-2.54-1.15-3.34c-.76-.8-1.87-1.2-3.3-1.2h-2v8.99h2c1.44,0,2.54-.39,3.3-1.17Z"/>
    <path class="cls-1" d="m423.61,241.27v3.6h4.24v1.64h-4.24v3.76h4.77v1.64h-6.78v-12.29h6.78v1.64h-4.77Z"/>
    <path class="cls-1" d="m448.37,239.64v12.27h-2.01v-8.41l-3.74,8.41h-1.4l-3.76-8.41v8.41h-2.01v-12.27h2.17l4.31,9.62,4.29-9.62h2.15Z"/>
    <path class="cls-1" d="m453.03,239.64v12.27h-2.01v-12.27h2.01Z"/>
    <path class="cls-1" d="m465.76,251.92h-2.01l-6.06-9.17v9.17h-2.01v-12.29h2.01l6.06,9.15v-9.15h2.01v12.29Z"/>
    <path class="cls-1" d="m475.81,249.41h-5.14l-.88,2.51h-2.1l4.4-12.29h2.33l4.4,12.29h-2.12l-.88-2.51Zm-.57-1.64l-2-5.7-2.01,5.7h4.01Z"/>
    <path class="cls-1" d="m482.54,251.61c-.66-.29-1.18-.7-1.55-1.23s-.56-1.15-.56-1.85h2.15c.05.53.26.97.63,1.31s.89.51,1.56.51,1.24-.17,1.62-.5c.39-.34.58-.77.58-1.3,0-.41-.12-.75-.36-1.01-.24-.26-.54-.46-.9-.6-.36-.14-.86-.29-1.49-.46-.8-.21-1.45-.43-1.95-.64-.5-.22-.93-.56-1.28-1.02-.35-.46-.53-1.07-.53-1.84,0-.71.18-1.32.53-1.85.35-.53.85-.94,1.48-1.22.64-.28,1.37-.42,2.21-.42,1.19,0,2.16.3,2.92.89.76.59,1.18,1.41,1.26,2.45h-2.22c-.04-.45-.25-.83-.64-1.15s-.9-.48-1.54-.48c-.58,0-1.05.15-1.41.44-.37.29-.55.72-.55,1.27,0,.38.11.69.34.93.23.24.52.43.87.57.35.14.84.29,1.45.46.81.22,1.47.45,1.99.67.51.22.95.57,1.31,1.03.36.47.54,1.09.54,1.86,0,.62-.17,1.21-.5,1.77-.34.55-.82,1-1.47,1.33-.64.34-1.4.5-2.27.5-.82,0-1.57-.14-2.22-.43Z"/>
    <path class="cls-1" d="m504.86,243.18c-.32-.61-.76-1.07-1.32-1.39-.57-.31-1.22-.47-1.96-.47-.81,0-1.54.18-2.17.55-.64.37-1.13.88-1.49,1.55-.36.67-.54,1.45-.54,2.33s.18,1.66.54,2.34c.36.68.86,1.2,1.49,1.56s1.36.55,2.17.55c1.09,0,1.98-.31,2.67-.92.68-.61,1.1-1.44,1.25-2.49h-4.61v-1.61h6.76v1.57c-.13.95-.47,1.83-1.02,2.63-.55.8-1.26,1.44-2.14,1.92-.88.48-1.85.72-2.92.72-1.15,0-2.21-.27-3.16-.8-.95-.54-1.71-1.28-2.27-2.23-.56-.95-.84-2.03-.84-3.23s.28-2.28.84-3.23c.56-.95,1.32-1.7,2.28-2.23.96-.54,2.01-.8,3.15-.8,1.31,0,2.47.32,3.49.96,1.02.64,1.76,1.55,2.22,2.73h-2.42Z"/>
    <path class="cls-1" d="m511.64,241.27v3.6h4.24v1.64h-4.24v3.76h4.77v1.64h-6.78v-12.29h6.78v1.64h-4.77Z"/>
    <path class="cls-1" d="m525.26,251.92l-2.83-4.91h-1.54v4.91h-2.01v-12.27h4.24c.94,0,1.74.17,2.39.49s1.14.77,1.47,1.32c.32.55.49,1.17.49,1.85,0,.8-.23,1.53-.7,2.18s-1.18,1.1-2.15,1.33l3.04,5.09h-2.4Zm-4.36-6.52h2.22c.75,0,1.32-.19,1.7-.56s.57-.88.57-1.52-.19-1.13-.57-1.49c-.38-.36-.95-.54-1.71-.54h-2.22v4.11Z"/>
    <path class="cls-1" d="m537.44,249.41h-5.14l-.88,2.51h-2.1l4.4-12.29h2.33l4.4,12.29h-2.12l-.88-2.51Zm-.57-1.64l-2-5.7-2.01,5.7h4.01Z"/>
    <path class="cls-1" d="m544.36,239.64v12.27h-2.01v-12.27h2.01Z"/>
    <path class="cls-1" d="m548.83,251.61c-.66-.29-1.18-.7-1.55-1.23s-.56-1.15-.56-1.85h2.15c.05.53.26.97.63,1.31s.89.51,1.56.51,1.24-.17,1.62-.5c.39-.34.58-.77.58-1.3,0-.41-.12-.75-.36-1.01-.24-.26-.54-.46-.9-.6-.36-.14-.86-.29-1.49-.46-.8-.21-1.45-.43-1.95-.64-.5-.22-.93-.56-1.28-1.02-.35-.46-.53-1.07-.53-1.84,0-.71.18-1.32.53-1.85.35-.53.85-.94,1.48-1.22.64-.28,1.37-.42,2.21-.42,1.19,0,2.16.3,2.92.89.76.59,1.18,1.41,1.26,2.45h-2.22c-.04-.45-.25-.83-.64-1.15s-.9-.48-1.54-.48c-.58,0-1.05.15-1.41.44-.37.29-.55.72-.55,1.27,0,.38.11.69.34.93.23.24.52.43.87.57.35.14.84.29,1.45.46.81.22,1.47.45,1.99.67.51.22.95.57,1.31,1.03.36.47.54,1.09.54,1.86,0,.62-.17,1.21-.5,1.77-.34.55-.82,1-1.47,1.33-.64.34-1.4.5-2.27.5-.82,0-1.57-.14-2.22-.43Z"/>
  </g>
  <g>
    <path class="cls-4" d="m366.31,52.5l-28.71,80.95h-24.68l-28.71-80.95h20.99l20.07,61.12,20.18-61.12h20.87Z"/>
    <path class="cls-4" d="m394.22,52.5v80.95h-19.72V52.5h19.72Z"/>
    <path class="cls-4" d="m421.9,131.37c-4.69-1.92-8.44-4.77-11.24-8.53-2.81-3.77-4.29-8.3-4.44-13.61h20.99c.31,3,1.34,5.29,3.11,6.86,1.77,1.58,4.07,2.36,6.92,2.36s5.23-.67,6.92-2.02c1.69-1.34,2.54-3.21,2.54-5.59,0-2-.67-3.65-2.02-4.96-1.35-1.31-3-2.38-4.96-3.23-1.96-.85-4.75-1.81-8.36-2.88-5.23-1.61-9.5-3.23-12.8-4.84-3.31-1.61-6.15-4-8.53-7.15-2.38-3.15-3.57-7.27-3.57-12.34,0-7.53,2.73-13.43,8.19-17.7,5.46-4.27,12.57-6.4,21.33-6.4s16.1,2.13,21.56,6.4c5.46,4.27,8.38,10.21,8.76,17.82h-21.33c-.16-2.61-1.12-4.67-2.88-6.17-1.77-1.5-4.04-2.25-6.8-2.25-2.38,0-4.31.63-5.77,1.9-1.46,1.27-2.19,3.1-2.19,5.48,0,2.61,1.23,4.65,3.69,6.11,2.46,1.46,6.3,3.04,11.53,4.73,5.23,1.77,9.47,3.46,12.74,5.07,3.27,1.61,6.09,3.96,8.48,7.03,2.38,3.08,3.57,7.03,3.57,11.88s-1.17,8.8-3.52,12.57c-2.35,3.77-5.75,6.77-10.21,8.99-4.46,2.23-9.73,3.34-15.8,3.34s-11.23-.96-15.91-2.88Z"/>
    <path class="cls-4" d="m529.83,119.15h-30.21l-4.84,14.3h-20.64l29.29-80.95h22.83l29.29,80.95h-20.87l-4.84-14.3Zm-5.07-15.22l-10.03-29.64-9.92,29.64h19.95Z"/>
    <path class="cls-2" d="m335.68,151.11c3.69,1.96,6.54,4.7,8.56,8.23,2.02,3.53,3.03,7.61,3.03,12.23s-1.01,8.64-3.03,12.19c-2.02,3.55-4.89,6.31-8.59,8.26-3.71,1.96-8.01,2.93-12.89,2.93h-17.52v-46.77h17.52c4.93,0,9.24.98,12.93,2.93Zm-3.6,30.45c2.4-2.35,3.6-5.69,3.6-9.99s-1.2-7.66-3.6-10.06c-2.4-2.4-5.75-3.6-10.06-3.6h-5.4v27.18h5.4c4.31,0,7.66-1.18,10.06-3.53Z"/>
    <path class="cls-2" d="m365.06,148.18v46.77h-11.39v-46.77h11.39Z"/>
    <path class="cls-2" d="m404.37,162.97c-.84-1.55-2.05-2.74-3.63-3.56-1.58-.82-3.43-1.23-5.56-1.23-3.69,0-6.64,1.21-8.86,3.63-2.22,2.42-3.33,5.65-3.33,9.69,0,4.31,1.17,7.67,3.5,10.09,2.33,2.42,5.54,3.63,9.63,3.63,2.8,0,5.16-.71,7.1-2.13,1.93-1.42,3.34-3.46,4.23-6.13h-14.46v-8.4h24.79v10.59c-.84,2.84-2.28,5.49-4.3,7.93-2.02,2.44-4.59,4.42-7.7,5.93-3.11,1.51-6.62,2.27-10.53,2.27-4.62,0-8.74-1.01-12.36-3.03-3.62-2.02-6.44-4.83-8.46-8.43-2.02-3.6-3.03-7.71-3.03-12.33s1.01-8.74,3.03-12.36c2.02-3.62,4.83-6.44,8.43-8.46,3.6-2.02,7.71-3.03,12.33-3.03,5.6,0,10.32,1.36,14.16,4.06,3.84,2.71,6.38,6.46,7.63,11.26h-12.59Z"/>
    <path class="cls-2" d="m435.49,148.18v46.77h-11.39v-46.77h11.39Z"/>
    <path class="cls-2" d="m477.4,148.18v9.13h-12.39v37.65h-11.39v-37.65h-12.39v-9.13h36.18Z"/>
    <path class="cls-2" d="m512.24,186.69h-17.46l-2.8,8.26h-11.93l16.92-46.77h13.19l16.92,46.77h-12.06l-2.8-8.26Zm-2.93-8.8l-5.8-17.12-5.73,17.12h11.53Z"/>
    <path class="cls-2" d="m543.62,186.16h14.92v8.79h-26.32v-46.77h11.39v37.98Z"/>
  </g>
  <path class="cls-3" d="m179.74,52.56h39.59c10.44,0,18.98,8.54,18.98,18.98v34.57h34.57c10.44,0,18.98,8.54,18.98,18.98v28.66c-5.55-1.8-11.11-3.59-16.66-5.38v-23.28c0-1.28-1.04-2.32-2.32-2.32h-51.23v-51.24c0-1.28-1.04-2.32-2.32-2.32h-39.59c-1.28,0-2.32,1.05-2.32,2.32v51.24h-51.23c-1.28,0-2.32,1.04-2.32,2.32v39.59c0,1.27,1.04,2.35,2.32,2.35,17.08,0,34.16-.03,51.23-.03v43.47c16.48-14.49,32.94-28.98,49.42-43.47h29.74c1.78,5.55,3.57,11.09,5.37,16.63h-28.8l-58.3,51.28c-5.23,4.99-14.09,1.36-14.09-6.02v-45.26l-34.57.03c-10.44,0-18.98-8.54-18.98-18.98v-39.59c0-10.44,8.54-18.98,18.98-18.98h34.57v-34.57c0-10.44,8.54-18.98,18.98-18.98h0Zm128.39,121.27c3.58-1.47,4.22-6.5-.07-8.11-14.79-4.78-28.96-9.39-43.81-14.14-3.02-.97-5.45,1.46-4.48,4.48,4.76,14.85,9.37,29.02,14.14,43.81,1.61,4.3,6.64,3.65,8.12.07,6.3-15.33,10.77-19.81,26.1-26.11h0Z"/>
</svg>