<?xml version="1.0" encoding="UTF-8"?>
<svg id="Camada_1" data-name="Camada 1" xmlns="http://www.w3.org/2000/svg" xmlns:xlink="http://www.w3.org/1999/xlink" viewBox="0 0 708.29 199.05">
  <defs>
    <style>
      .cls-1 {
        fill: #a2c782;
      }

      .cls-2 {
        fill: #87bd90;
      }

      .cls-3 {
        fill: #2b9fbd;
      }

      .cls-4 {
        fill: #36a2b8;
      }

      .cls-5 {
        fill: #0d94cc;
      }

      .cls-6 {
        fill: #78b897;
      }

      .cls-7 {
        fill: #55ada9;
      }

      .cls-8 {
        fill: #30a0bb;
      }

      .cls-9 {
        fill: #1d9ac4;
      }

      .cls-10 {
        fill: #7ab996;
      }

      .cls-11 {
        fill: #84bc91;
      }

      .cls-12 {
        fill: #1196ca;
      }

      .cls-13 {
        fill: #0e95cc;
      }

      .cls-14 {
        fill: #1597c8;
      }

      .cls-15 {
        fill: #1f9bc3;
      }

      .cls-16 {
        fill: #a1c683;
      }

      .cls-17 {
        fill: #44a7b1;
      }

      .cls-18 {
        fill: #0491d1;
      }

      .cls-19 {
        fill: #8fc08c;
      }

      .cls-20 {
        fill: #70b69b;
      }

      .cls-21 {
        fill: #0c94cd;
      }

      .cls-22 {
        fill: #35a2b8;
      }

      .cls-23 {
        fill: #5bafa6;
      }

      .cls-24 {
        fill: #6db59d;
      }

      .cls-25 {
        fill: #90c18b;
      }

      .cls-26 {
        fill: #2c9fbd;
      }

      .cls-27 {
        fill: #9fc684;
      }

      .cls-28 {
        fill: #63b1a2;
      }

      .cls-29 {
        fill: #77b898;
      }

      .cls-30 {
        fill: #a4c781;
      }

      .cls-31 {
        fill: #38a3b7;
      }

      .cls-32 {
        fill: #299ebe;
      }

      .cls-33 {
        fill: #43a7b1;
      }

      .cls-34 {
        fill: #8dc08d;
      }

      .cls-35 {
        fill: #2ea0bc;
      }

      .cls-36 {
        fill: #2d9fbc;
      }

      .cls-37 {
        fill: #5eb0a4;
      }

      .cls-38 {
        fill: #66b2a0;
      }

      .cls-39 {
        fill: #1497c9;
      }

      .cls-40 {
        fill: #45a7b0;
      }

      .cls-41 {
        fill: #1396c9;
      }

      .cls-42 {
        fill: #0993ce;
      }

      .cls-43 {
        fill: #7cba95;
      }

      .cls-44 {
        fill: #3fa5b3;
      }

      .cls-45 {
        fill: #1998c6;
      }

      .cls-46 {
        fill: #209bc3;
      }

      .cls-47 {
        fill: #75b799;
      }

      .cls-48 {
        fill: #239cc1;
      }

      .cls-49 {
        fill: #74b799;
      }

      .cls-50 {
        fill: #31a1ba;
      }

      .cls-51 {
        fill: #1697c8;
      }

      .cls-52 {
        fill: #81bb93;
      }

      .cls-53 {
        fill: #49a9ae;
      }

      .cls-54 {
        fill: #37a3b7;
      }

      .cls-55 {
        fill: #57ada8;
      }

      .cls-56 {
        fill: #a0c683;
      }

      .cls-57 {
        fill: #0b94cd;
      }

      .cls-58 {
        fill: #82bc92;
      }

      .cls-59 {
        fill: #65b2a1;
      }

      .cls-60 {
        fill: #46a8b0;
      }

      .cls-61 {
        fill: #8cbf8d;
      }

      .cls-62 {
        fill: #7dba95;
      }

      .cls-63 {
        fill: #93c28a;
      }

      .cls-64 {
        fill: #0893cf;
      }

      .cls-65 {
        fill: #6cb49d;
      }

      .cls-66 {
        fill: #a5c881;
      }

      .cls-67 {
        fill: #58aea7;
      }

      .cls-68 {
        fill: #259dc0;
      }

      .cls-69 {
        fill: #219bc2;
      }

      .cls-70 {
        fill: #50abab;
      }

      .cls-71 {
        fill: #61b1a3;
      }

      .cls-72 {
        fill: #41a6b2;
      }

      .cls-73 {
        fill: #51abaa;
      }

      .cls-74 {
        fill: #4fabab;
      }

      .cls-75 {
        fill: #5fb0a4;
      }

      .cls-76 {
        fill: #a6c880;
      }

      .cls-77 {
        fill: #67b3a0;
      }

      .cls-78 {
        fill: #32a1ba;
      }

      .cls-79 {
        fill: #8bbf8e;
      }

      .cls-80 {
        fill: #0090d3;
      }

      .cls-81 {
        fill: #95c289;
      }

      .cls-82 {
        fill: #8ec08c;
      }

      .cls-83 {
        fill: #a3c782;
      }

      .cls-84 {
        fill: #4eaaac;
      }

      .cls-85 {
        fill: #9bc486;
      }

      .cls-86 {
        fill: #1095cb;
      }

      .cls-87 {
        fill: #0792cf;
      }

      .cls-88 {
        fill: #1b99c5;
      }

      .cls-89 {
        fill: #269dc0;
      }

      .cls-90 {
        fill: #79b997;
      }

      .cls-91 {
        fill: #2a9ebe;
      }

      .cls-92 {
        fill: #39a3b6;
      }

      .cls-93 {
        fill: #2fa0bb;
      }

      .cls-94 {
        fill: #249cc1;
      }

      .cls-95 {
        fill: #98c387;
      }

      .cls-96 {
        fill: #3aa4b6;
      }

      .cls-97 {
        fill: #89be8f;
      }

      .cls-98 {
        fill: #57b5e4;
      }

      .cls-99 {
        fill: #56ada8;
      }

      .cls-100 {
        fill: #48a8af;
      }

      .cls-101 {
        fill: #1898c7;
      }

      .cls-102 {
        fill: #9dc585;
      }

      .cls-103 {
        fill: #92c18a;
      }

      .cls-104 {
        fill: #3ba4b5;
      }

      .cls-105 {
        fill: #3ea5b4;
      }

      .cls-106 {
        clip-path: url(#clippath);
      }

      .cls-107 {
        fill: #1e9ac4;
      }

      .cls-108 {
        fill: #94c289;
      }

      .cls-109 {
        fill: #7eba94;
      }

      .cls-110 {
        fill: #0a93ce;
      }

      .cls-111 {
        fill: #1a99c6;
      }

      .cls-112 {
        fill: #88be8f;
      }

      .cls-113 {
        fill: #289ebf;
      }

      .cls-114 {
        fill: #5cafa5;
      }

      .cls-115 {
        fill: none;
      }

      .cls-116 {
        fill: #8abe8e;
      }

      .cls-117 {
        fill: #9ec584;
      }

      .cls-118 {
        fill: #42a6b2;
      }

      .cls-119 {
        fill: #1c9ac5;
      }

      .cls-120 {
        fill: #68b39f;
      }

      .cls-121 {
        fill: #4ba9ad;
      }

      .cls-122 {
        fill: #3da5b4;
      }

      .cls-123 {
        fill: #6eb59c;
      }

      .cls-124 {
        fill: #52acaa;
      }

      .cls-125 {
        fill: #1798c7;
      }

      .cls-126 {
        fill: #7fbb94;
      }

      .cls-127 {
        fill: #40a6b3;
      }

      .cls-128 {
        fill: #0f95cb;
      }

      .cls-129 {
        fill: #9cc585;
      }

      .cls-130 {
        fill: #279dbf;
      }

      .cls-131 {
        fill: #6fb59c;
      }

      .cls-132 {
        fill: #229cc2;
      }

      .cls-133 {
        fill: #4aa9ae;
      }

      .cls-134 {
        fill: #6bb49e;
      }

      .cls-135 {
        fill: #34a2b9;
      }

      .cls-136 {
        fill: #62b1a2;
      }

      .cls-137 {
        fill: #86bd90;
      }

      .cls-138 {
        fill: #7bb996;
      }

      .cls-139 {
        fill: #80bb93;
      }

      .cls-140 {
        fill: #91c18b;
      }

      .cls-141 {
        fill: #97c388;
      }

      .cls-142 {
        fill: #0291d2;
      }

      .cls-143 {
        fill: #5dafa5;
      }

      .cls-144 {
        fill: #59aea7;
      }

      .cls-145 {
        fill: #54aca9;
      }

      .cls-146 {
        fill: #0692d0;
      }

      .cls-147 {
        fill: #64b2a1;
      }

      .cls-148 {
        fill: #47a8af;
      }

      .cls-149 {
        fill: #1296ca;
      }

      .cls-150 {
        fill: #72b69a;
      }

      .cls-151 {
        fill: #96c388;
      }

      .cls-152 {
        fill: #83bc92;
      }

      .cls-153 {
        fill: #9ac486;
      }

      .cls-154 {
        fill: #69b39f;
      }

      .cls-155 {
        fill: #0391d1;
      }

      .cls-156 {
        fill: #60b0a3;
      }

      .cls-157 {
        fill: #6ab49e;
      }

      .cls-158 {
        fill: #3ca4b5;
      }

      .cls-159 {
        fill: #76b898;
      }

      .cls-160 {
        fill: #73b79a;
      }

      .cls-161 {
        fill: #4caaad;
      }

      .cls-162 {
        fill: #0592d0;
      }

      .cls-163 {
        fill: #5aaea6;
      }

      .cls-164 {
        fill: #33a1b9;
      }

      .cls-165 {
        fill: #71b69b;
      }

      .cls-166 {
        fill: #99c487;
      }

      .cls-167 {
        fill: #85bd91;
      }

      .cls-168 {
        fill: #4daaac;
      }

      .cls-169 {
        fill: #0190d2;
      }
    </style>
    <clipPath id="clippath">
      <path class="cls-115" d="m132.23,64.56h21.85c5.76,0,10.48,4.72,10.48,10.48v19.09h19.08c5.76,0,10.48,4.72,10.48,10.48v15.82c-3.07-.99-6.13-1.98-9.2-2.97v-12.85c0-.71-.58-1.28-1.28-1.28h-28.28v-28.29c0-.7-.57-1.28-1.28-1.28h-21.85c-.71,0-1.28.58-1.28,1.28v28.29h-28.28c-.71,0-1.28.57-1.28,1.28v21.85c0,.7.57,1.3,1.28,1.3,9.43,0,18.86-.02,28.28-.02v24c9.1-8,18.19-16,27.28-24h16.42c.98,3.07,1.97,6.12,2.96,9.18h-15.9l-32.19,28.31c-2.89,2.75-7.78.75-7.78-3.33v-24.98l-19.08.02c-5.76,0-10.48-4.72-10.48-10.48v-21.85c0-5.76,4.72-10.48,10.48-10.48h19.08v-19.09c0-5.76,4.72-10.48,10.48-10.48h0Zm70.88,66.95c1.97-.81,2.33-3.59-.04-4.48-8.17-2.64-15.99-5.18-24.19-7.81-1.67-.54-3.01.81-2.47,2.47,2.63,8.2,5.17,16.02,7.81,24.19.89,2.37,3.67,2.01,4.48.04,3.48-8.47,5.95-10.93,14.41-14.41h0Z"/>
    </clipPath>
  </defs>
  <g>
    <path class="cls-5" d="m220.84,124.72l-3.41,9.07h-1.72l-3.42-9.07h1.59l2.69,7.54,2.7-7.54h1.57Z"/>
    <path class="cls-5" d="m224.35,124.72v9.07h-1.49v-9.07h1.49Z"/>
    <path class="cls-5" d="m233.65,127.33c-.24-.45-.56-.79-.98-1.02-.42-.23-.9-.35-1.45-.35-.6,0-1.13.13-1.6.4-.47.27-.84.65-1.1,1.15-.26.5-.4,1.07-.4,1.72s.13,1.23.4,1.73c.27.5.63.88,1.1,1.16.47.27,1,.4,1.6.4.81,0,1.47-.23,1.97-.68s.81-1.07.93-1.84h-3.41v-1.19h5v1.16c-.1.71-.35,1.35-.75,1.94s-.93,1.06-1.58,1.42c-.65.35-1.37.53-2.16.53-.85,0-1.63-.2-2.34-.59-.7-.4-1.26-.95-1.68-1.65-.41-.71-.62-1.5-.62-2.39s.21-1.68.62-2.39c.41-.71.97-1.25,1.68-1.65.71-.4,1.49-.59,2.33-.59.97,0,1.83.24,2.58.71.75.47,1.3,1.15,1.64,2.02h-1.79Z"/>
    <path class="cls-5" d="m239.45,124.72v9.07h-1.49v-9.07h1.49Z"/>
    <path class="cls-5" d="m243.68,132.59h3.07v1.2h-4.55v-9.07h1.49v7.87Z"/>
    <path class="cls-5" d="m254.23,131.94h-3.8l-.65,1.85h-1.55l3.25-9.08h1.72l3.25,9.08h-1.57l-.65-1.85Zm-1.89-8.86l-1.87,1.12v-1.16l1.87-1.08,1.87,1.08v1.16l-1.87-1.12Zm1.47,7.65l-1.47-4.22-1.49,4.22h2.96Z"/>
    <path class="cls-5" d="m266.1,133.79h-1.49l-4.48-6.77v6.77h-1.49v-9.08h1.49l4.48,6.76v-6.76h1.49v9.08Z"/>
    <path class="cls-5" d="m268.96,126.85c.41-.71.97-1.25,1.68-1.65.71-.4,1.49-.59,2.33-.59.97,0,1.83.24,2.58.71.75.47,1.3,1.15,1.64,2.02h-1.79c-.24-.48-.56-.83-.98-1.07-.42-.23-.9-.35-1.45-.35-.6,0-1.13.13-1.6.4s-.84.66-1.1,1.16c-.26.5-.4,1.09-.4,1.76s.13,1.26.4,1.76c.27.5.63.89,1.1,1.17.47.27,1,.41,1.6.41.55,0,1.03-.12,1.45-.35.42-.23.74-.59.98-1.07h1.79c-.34.87-.89,1.54-1.64,2.01-.75.47-1.61.7-2.58.7-.85,0-1.63-.2-2.34-.59-.7-.4-1.26-.95-1.68-1.65-.41-.71-.62-1.5-.62-2.39s.21-1.68.62-2.39Z"/>
    <path class="cls-5" d="m281.19,124.72v9.07h-1.49v-9.07h1.49Z"/>
    <path class="cls-5" d="m289.4,131.94h-3.8l-.65,1.85h-1.55l3.25-9.08h1.72l3.25,9.08h-1.57l-.65-1.85Zm-.42-1.21l-1.47-4.22-1.49,4.22h2.96Z"/>
    <path class="cls-5" d="m299.33,133.56c-.49-.21-.87-.52-1.15-.91-.28-.39-.42-.85-.42-1.37h1.59c.04.39.19.71.46.97.27.25.66.38,1.15.38s.91-.12,1.2-.37.43-.57.43-.96c0-.3-.09-.55-.27-.74-.18-.19-.4-.34-.67-.44s-.63-.22-1.1-.34c-.59-.16-1.07-.32-1.44-.48-.37-.16-.69-.41-.95-.75-.26-.34-.39-.79-.39-1.36,0-.52.13-.98.39-1.37.26-.39.63-.69,1.1-.9s1.01-.31,1.63-.31c.88,0,1.6.22,2.16.66.56.44.87,1.04.93,1.81h-1.64c-.03-.33-.18-.61-.47-.85-.29-.23-.67-.35-1.14-.35-.43,0-.77.11-1.04.33-.27.22-.4.53-.4.94,0,.28.08.51.25.68.17.18.39.32.65.42s.62.22,1.07.34c.6.17,1.09.33,1.47.5.38.17.7.42.97.76s.4.8.4,1.38c0,.46-.12.9-.37,1.31s-.61.74-1.08.99c-.47.25-1.03.37-1.68.37-.61,0-1.16-.11-1.64-.32Z"/>
    <path class="cls-5" d="m312.12,131.94h-3.8l-.65,1.85h-1.55l3.25-9.08h1.72l3.25,9.08h-1.57l-.65-1.85Zm-.42-1.21l-1.47-4.22-1.49,4.22h2.96Z"/>
    <path class="cls-5" d="m323.99,133.79h-1.49l-4.48-6.77v6.77h-1.49v-9.08h1.49l4.48,6.76v-6.76h1.49v9.08Z"/>
    <path class="cls-5" d="m328.21,124.72v9.07h-1.49v-9.07h1.49Z"/>
    <path class="cls-5" d="m336.81,124.72v1.21h-2.41v7.86h-1.49v-7.86h-2.43v-1.21h6.33Z"/>
    <path class="cls-5" d="m344.56,131.94h-3.8l-.65,1.85h-1.55l3.25-9.08h1.72l3.25,9.08h-1.57l-.65-1.85Zm-.55-9.16l-2.88,1.42v-1.1l2.88-1.59v1.27Zm.13,7.95l-1.47-4.22-1.49,4.22h2.96Z"/>
    <path class="cls-5" d="m353.69,133.79l-2.09-3.63h-1.13v3.63h-1.49v-9.07h3.13c.7,0,1.29.12,1.77.37.48.24.84.57,1.08.98s.36.87.36,1.37c0,.59-.17,1.13-.52,1.61-.34.48-.87.81-1.59.98l2.25,3.76h-1.78Zm-3.22-4.82h1.64c.56,0,.98-.14,1.26-.42.28-.28.42-.65.42-1.12s-.14-.84-.42-1.1c-.28-.27-.7-.4-1.27-.4h-1.64v3.04Z"/>
    <path class="cls-5" d="m359.49,124.72v9.07h-1.49v-9.07h1.49Z"/>
    <path class="cls-5" d="m367.7,131.94h-3.8l-.65,1.85h-1.55l3.25-9.08h1.72l3.25,9.08h-1.57l-.65-1.85Zm-.42-1.21l-1.47-4.22-1.49,4.22h2.96Z"/>
    <path class="cls-5" d="m381.79,125.28c.73.37,1.29.9,1.68,1.59.4.69.59,1.5.59,2.42s-.2,1.72-.59,2.4c-.4.68-.96,1.2-1.68,1.56-.73.36-1.57.54-2.54.54h-2.96v-9.07h2.96c.97,0,1.81.18,2.54.55Zm-.1,6.44c.57-.57.85-1.38.85-2.43s-.28-1.88-.85-2.47c-.57-.59-1.38-.89-2.44-.89h-1.47v6.64h1.47c1.06,0,1.87-.29,2.44-.86Z"/>
    <path class="cls-5" d="m388.13,133.29c-.71-.4-1.27-.95-1.68-1.66-.41-.71-.62-1.51-.62-2.39s.21-1.68.62-2.39c.41-.71.97-1.25,1.68-1.65.71-.4,1.49-.59,2.33-.59s1.63.2,2.34.59c.71.4,1.27.95,1.68,1.65.41.7.61,1.5.61,2.39s-.2,1.69-.61,2.39c-.41.71-.97,1.26-1.68,1.66-.71.4-1.49.59-2.34.59s-1.62-.2-2.33-.59Zm3.93-1.11c.47-.27.84-.67,1.1-1.17s.4-1.1.4-1.77-.13-1.26-.4-1.76c-.27-.5-.63-.89-1.1-1.16s-1-.4-1.61-.4-1.13.13-1.6.4-.84.66-1.1,1.16c-.26.5-.4,1.09-.4,1.76s.13,1.26.4,1.77c.27.51.63.9,1.1,1.17.47.27,1,.41,1.6.41s1.14-.14,1.61-.41Z"/>
    <path class="cls-5" d="m403,125.92v2.66h3.13v1.21h-3.13v2.78h3.52v1.21h-5.01v-9.08h5.01v1.21h-3.52Z"/>
    <path class="cls-5" d="m410.48,133.56c-.49-.21-.87-.52-1.15-.91-.28-.39-.42-.85-.42-1.37h1.59c.04.39.19.71.46.97.27.25.66.38,1.15.38s.91-.12,1.2-.37.43-.57.43-.96c0-.3-.09-.55-.27-.74-.18-.19-.4-.34-.67-.44s-.63-.22-1.1-.34c-.59-.16-1.07-.32-1.44-.48-.37-.16-.69-.41-.95-.75-.26-.34-.39-.79-.39-1.36,0-.52.13-.98.39-1.37.26-.39.63-.69,1.1-.9s1.01-.31,1.63-.31c.88,0,1.6.22,2.16.66.56.44.87,1.04.93,1.81h-1.64c-.03-.33-.18-.61-.47-.85-.29-.23-.67-.35-1.14-.35-.43,0-.77.11-1.04.33-.27.22-.4.53-.4.94,0,.28.08.51.25.68.17.18.39.32.65.42s.62.22,1.07.34c.6.17,1.09.33,1.47.5.38.17.7.42.97.76s.4.8.4,1.38c0,.46-.12.9-.37,1.31s-.61.74-1.08.99c-.47.25-1.03.37-1.68.37-.61,0-1.16-.11-1.64-.32Z"/>
    <path class="cls-5" d="m423.66,124.72v1.21h-2.41v7.86h-1.49v-7.86h-2.43v-1.21h6.33Z"/>
    <path class="cls-5" d="m431.41,131.94h-3.8l-.65,1.85h-1.55l3.25-9.08h1.72l3.25,9.08h-1.57l-.65-1.85Zm-.42-1.21l-1.47-4.22-1.49,4.22h2.96Z"/>
    <path class="cls-5" d="m441.32,125.28c.73.37,1.29.9,1.68,1.59.4.69.59,1.5.59,2.42s-.2,1.72-.59,2.4c-.4.68-.96,1.2-1.68,1.56-.73.36-1.57.54-2.54.54h-2.96v-9.07h2.96c.97,0,1.81.18,2.54.55Zm-.1,6.44c.57-.57.85-1.38.85-2.43s-.28-1.88-.85-2.47c-.57-.59-1.38-.89-2.44-.89h-1.47v6.64h1.47c1.06,0,1.87-.29,2.44-.86Z"/>
    <path class="cls-5" d="m447.66,133.29c-.71-.4-1.27-.95-1.68-1.66-.41-.71-.62-1.51-.62-2.39s.21-1.68.62-2.39c.41-.71.97-1.25,1.68-1.65.71-.4,1.49-.59,2.33-.59s1.63.2,2.34.59c.71.4,1.27.95,1.68,1.65.41.7.61,1.5.61,2.39s-.2,1.69-.61,2.39c-.41.71-.97,1.26-1.68,1.66-.71.4-1.49.59-2.34.59s-1.62-.2-2.33-.59Zm3.93-1.11c.47-.27.84-.67,1.1-1.17s.4-1.1.4-1.77-.13-1.26-.4-1.76c-.27-.5-.63-.89-1.1-1.16s-1-.4-1.61-.4-1.13.13-1.6.4-.84.66-1.1,1.16c-.26.5-.4,1.09-.4,1.76s.13,1.26.4,1.77c.27.51.63.9,1.1,1.17.47.27,1,.41,1.6.41s1.14-.14,1.61-.41Z"/>
    <path class="cls-5" d="m466.55,125.28c.73.37,1.29.9,1.68,1.59.4.69.59,1.5.59,2.42s-.2,1.72-.59,2.4c-.4.68-.96,1.2-1.68,1.56-.73.36-1.57.54-2.54.54h-2.96v-9.07h2.96c.97,0,1.81.18,2.54.55Zm-.1,6.44c.57-.57.85-1.38.85-2.43s-.28-1.88-.85-2.47c-.57-.59-1.38-.89-2.44-.89h-1.47v6.64h1.47c1.06,0,1.87-.29,2.44-.86Z"/>
    <path class="cls-5" d="m472.57,125.92v2.66h3.13v1.21h-3.13v2.78h3.52v1.21h-5.01v-9.08h5.01v1.21h-3.52Z"/>
    <path class="cls-5" d="m492.43,124.72v9.07h-1.49v-6.21l-2.77,6.21h-1.03l-2.78-6.21v6.21h-1.49v-9.07h1.61l3.18,7.11,3.17-7.11h1.59Z"/>
    <path class="cls-5" d="m496.66,124.72v9.07h-1.49v-9.07h1.49Z"/>
    <path class="cls-5" d="m506.85,133.79h-1.49l-4.48-6.77v6.77h-1.49v-9.08h1.49l4.48,6.76v-6.76h1.49v9.08Z"/>
    <path class="cls-5" d="m515.06,131.94h-3.8l-.65,1.85h-1.55l3.25-9.08h1.72l3.25,9.08h-1.57l-.65-1.85Zm-.42-1.21l-1.47-4.22-1.49,4.22h2.96Z"/>
    <path class="cls-5" d="m520.81,133.56c-.49-.21-.87-.52-1.15-.91-.28-.39-.42-.85-.42-1.37h1.59c.04.39.19.71.46.97.27.25.66.38,1.15.38s.91-.12,1.2-.37.43-.57.43-.96c0-.3-.09-.55-.27-.74-.18-.19-.4-.34-.67-.44s-.63-.22-1.1-.34c-.59-.16-1.07-.32-1.44-.48-.37-.16-.69-.41-.95-.75-.26-.34-.39-.79-.39-1.36,0-.52.13-.98.39-1.37.26-.39.63-.69,1.1-.9s1.01-.31,1.63-.31c.88,0,1.6.22,2.16.66.56.44.87,1.04.93,1.81h-1.64c-.03-.33-.18-.61-.47-.85-.29-.23-.67-.35-1.14-.35-.43,0-.77.11-1.04.33-.27.22-.4.53-.4.94,0,.28.08.51.25.68.17.18.39.32.65.42s.62.22,1.07.34c.6.17,1.09.33,1.47.5.38.17.7.42.97.76s.4.8.4,1.38c0,.46-.12.9-.37,1.31s-.61.74-1.08.99c-.47.25-1.03.37-1.68.37-.61,0-1.16-.11-1.64-.32Z"/>
    <path class="cls-5" d="m538.88,127.33c-.24-.45-.56-.79-.98-1.02-.42-.23-.9-.35-1.45-.35-.6,0-1.13.13-1.6.4-.47.27-.84.65-1.1,1.15-.26.5-.4,1.07-.4,1.72s.13,1.23.4,1.73c.27.5.63.88,1.1,1.16.47.27,1,.4,1.6.4.81,0,1.47-.23,1.97-.68s.81-1.07.93-1.84h-3.41v-1.19h5v1.16c-.1.71-.35,1.35-.75,1.94s-.93,1.06-1.58,1.42c-.65.35-1.37.53-2.16.53-.85,0-1.63-.2-2.34-.59-.7-.4-1.26-.95-1.68-1.65-.41-.71-.62-1.5-.62-2.39s.21-1.68.62-2.39c.41-.71.97-1.25,1.68-1.65.71-.4,1.49-.59,2.33-.59.97,0,1.83.24,2.58.71.75.47,1.3,1.15,1.64,2.02h-1.79Z"/>
    <path class="cls-5" d="m544.67,125.92v2.66h3.13v1.21h-3.13v2.78h3.52v1.21h-5.01v-9.08h5.01v1.21h-3.52Z"/>
    <path class="cls-5" d="m555.51,133.79l-2.09-3.63h-1.13v3.63h-1.49v-9.07h3.13c.7,0,1.29.12,1.77.37.48.24.84.57,1.08.98s.36.87.36,1.37c0,.59-.17,1.13-.52,1.61-.34.48-.87.81-1.59.98l2.25,3.76h-1.78Zm-3.22-4.82h1.64c.56,0,.98-.14,1.26-.42.28-.28.42-.65.42-1.12s-.14-.84-.42-1.1c-.28-.27-.7-.4-1.27-.4h-1.64v3.04Z"/>
    <path class="cls-5" d="m565.3,131.94h-3.8l-.65,1.85h-1.55l3.25-9.08h1.72l3.25,9.08h-1.57l-.65-1.85Zm-.42-1.21l-1.47-4.22-1.49,4.22h2.96Z"/>
    <path class="cls-5" d="m571.2,124.72v9.07h-1.49v-9.07h1.49Z"/>
    <path class="cls-5" d="m575.28,133.56c-.49-.21-.87-.52-1.15-.91-.28-.39-.42-.85-.42-1.37h1.59c.04.39.19.71.46.97.27.25.66.38,1.15.38s.91-.12,1.2-.37.43-.57.43-.96c0-.3-.09-.55-.27-.74-.18-.19-.4-.34-.67-.44s-.63-.22-1.1-.34c-.59-.16-1.07-.32-1.44-.48-.37-.16-.69-.41-.95-.75-.26-.34-.39-.79-.39-1.36,0-.52.13-.98.39-1.37.26-.39.63-.69,1.1-.9s1.01-.31,1.63-.31c.88,0,1.6.22,2.16.66.56.44.87,1.04.93,1.81h-1.64c-.03-.33-.18-.61-.47-.85-.29-.23-.67-.35-1.14-.35-.43,0-.77.11-1.04.33-.27.22-.4.53-.4.94,0,.28.08.51.25.68.17.18.39.32.65.42s.62.22,1.07.34c.6.17,1.09.33,1.47.5.38.17.7.42.97.76s.4.8.4,1.38c0,.46-.12.9-.37,1.31s-.61.74-1.08.99c-.47.25-1.03.37-1.68.37-.61,0-1.16-.11-1.64-.32Z"/>
  </g>
  <g>
    <path class="cls-128" d="m238.43,68.33l-15.68,44.2h-13.47l-15.68-44.2h11.46l10.96,33.37,11.02-33.37h11.4Z"/>
    <path class="cls-128" d="m253.67,68.33v44.2h-10.77v-44.2h10.77Z"/>
    <path class="cls-128" d="m268.78,111.4c-2.56-1.05-4.61-2.6-6.14-4.66-1.53-2.06-2.34-4.53-2.42-7.43h11.46c.17,1.64.73,2.89,1.7,3.75.96.86,2.22,1.29,3.78,1.29s2.85-.37,3.78-1.1c.92-.73,1.38-1.75,1.38-3.05,0-1.09-.37-1.99-1.1-2.71-.73-.71-1.64-1.3-2.71-1.76-1.07-.46-2.59-.99-4.57-1.57-2.86-.88-5.18-1.76-6.99-2.64-1.81-.88-3.36-2.18-4.66-3.9-1.3-1.72-1.95-3.97-1.95-6.74,0-4.11,1.49-7.33,4.47-9.67,2.98-2.33,6.86-3.5,11.65-3.5s8.79,1.17,11.77,3.5,4.58,5.57,4.79,9.73h-11.65c-.08-1.43-.61-2.55-1.57-3.37s-2.2-1.23-3.71-1.23c-1.3,0-2.35.35-3.15,1.04-.8.69-1.2,1.69-1.2,2.99,0,1.43.67,2.54,2.02,3.34,1.34.8,3.44,1.66,6.3,2.58,2.85.97,5.17,1.89,6.96,2.77,1.78.88,3.33,2.16,4.63,3.84,1.3,1.68,1.95,3.84,1.95,6.49s-.64,4.81-1.92,6.86c-1.28,2.06-3.14,3.69-5.57,4.91s-5.31,1.83-8.63,1.83-6.13-.52-8.69-1.57Z"/>
    <path class="cls-128" d="m327.71,104.72h-16.5l-2.64,7.81h-11.27l15.99-44.2h12.47l15.99,44.2h-11.4l-2.64-7.81Zm-2.77-8.31l-5.48-16.18-5.42,16.18h10.89Z"/>
    <path class="cls-19" d="m375.38,71.1c3.48,1.85,6.18,4.44,8.09,7.78,1.91,3.34,2.87,7.19,2.87,11.55s-.96,8.16-2.87,11.52c-1.91,3.36-4.62,5.96-8.12,7.81-3.5,1.85-7.57,2.77-12.18,2.77h-16.56v-44.2h16.56c4.66,0,8.73.92,12.22,2.77Zm-3.4,28.78c2.27-2.22,3.4-5.37,3.4-9.44s-1.13-7.24-3.4-9.51c-2.27-2.27-5.44-3.4-9.51-3.4h-5.1v25.69h5.1c4.07,0,7.24-1.11,9.51-3.34Z"/>
    <path class="cls-19" d="m403.14,68.33v44.2h-10.77v-44.2h10.77Z"/>
    <path class="cls-19" d="m440.3,82.31c-.8-1.47-1.94-2.59-3.43-3.37-1.49-.78-3.24-1.17-5.26-1.17-3.48,0-6.28,1.14-8.37,3.43-2.1,2.29-3.15,5.34-3.15,9.16,0,4.07,1.1,7.25,3.31,9.54,2.2,2.29,5.24,3.43,9.1,3.43,2.64,0,4.88-.67,6.71-2.01,1.83-1.34,3.16-3.27,4-5.79h-13.66v-7.93h23.42v10.01c-.8,2.69-2.15,5.18-4.06,7.49-1.91,2.31-4.33,4.18-7.27,5.6-2.94,1.43-6.26,2.14-9.95,2.14-4.37,0-8.26-.95-11.68-2.86-3.42-1.91-6.09-4.57-8-7.97-1.91-3.4-2.86-7.28-2.86-11.65s.95-8.26,2.86-11.68c1.91-3.42,4.57-6.09,7.97-8,3.4-1.91,7.28-2.87,11.65-2.87,5.29,0,9.75,1.28,13.38,3.84,3.63,2.56,6.03,6.11,7.21,10.64h-11.9Z"/>
    <path class="cls-19" d="m469.7,68.33v44.2h-10.77v-44.2h10.77Z"/>
    <path class="cls-19" d="m509.3,68.33v8.63h-11.71v35.58h-10.77v-35.58h-11.71v-8.63h34.19Z"/>
    <path class="cls-19" d="m542.24,104.72h-16.5l-2.64,7.81h-11.27l15.99-44.2h12.47l15.99,44.2h-11.4l-2.64-7.81Zm-2.77-8.31l-5.48-16.18-5.42,16.18h10.89Z"/>
    <path class="cls-19" d="m571.89,104.22h14.1v8.31h-24.87v-44.2h10.77v35.89Z"/>
  </g>
  <g class="cls-106">
    <rect class="cls-9" x="175.88" y="148.08" width="29.57" height=".17"/>
    <rect class="cls-107" x="175.88" y="147.47" width="29.57" height=".61"/>
    <rect class="cls-15" x="175.88" y="146.85" width="29.57" height=".61"/>
    <rect class="cls-46" x="175.88" y="146.24" width="29.57" height=".61"/>
    <rect class="cls-69" x="175.88" y="145.62" width="29.57" height=".61"/>
    <rect class="cls-132" x="175.88" y="145.01" width="29.57" height=".61"/>
    <rect class="cls-48" x="175.88" y="144.4" width="29.57" height=".61"/>
    <rect class="cls-94" x="175.88" y="143.78" width="29.57" height=".61"/>
    <rect class="cls-68" x="175.88" y="143.17" width="29.57" height=".61"/>
    <rect class="cls-89" x="175.88" y="142.55" width="29.57" height=".61"/>
    <rect class="cls-130" x="175.88" y="141.94" width="29.57" height=".61"/>
    <rect class="cls-113" x="175.88" y="141.33" width="29.57" height=".61"/>
    <rect class="cls-32" x="175.88" y="140.71" width="29.57" height=".61"/>
    <rect class="cls-91" x="175.88" y="140.1" width="29.57" height=".61"/>
    <rect class="cls-3" x="175.88" y="139.48" width="29.57" height=".61"/>
    <rect class="cls-26" x="175.88" y="138.87" width="29.57" height=".61"/>
    <rect class="cls-36" x="175.88" y="138.25" width="29.57" height=".61"/>
    <rect class="cls-35" x="175.88" y="137.64" width="29.57" height=".61"/>
    <rect class="cls-93" x="175.88" y="137.03" width="29.57" height=".61"/>
    <rect class="cls-8" x="175.88" y="136.41" width="29.57" height=".61"/>
    <rect class="cls-50" x="175.88" y="135.8" width="29.57" height=".61"/>
    <rect class="cls-78" x="175.88" y="135.18" width="29.57" height=".61"/>
    <rect class="cls-164" x="175.88" y="134.57" width="29.57" height=".61"/>
    <rect class="cls-135" x="175.88" y="133.96" width="29.57" height=".61"/>
    <rect class="cls-22" x="175.88" y="133.34" width="29.57" height=".61"/>
    <rect class="cls-4" x="175.88" y="132.73" width="29.57" height=".61"/>
    <rect class="cls-54" x="175.88" y="132.11" width="29.57" height=".61"/>
    <rect class="cls-31" x="175.88" y="131.5" width="29.57" height=".61"/>
    <rect class="cls-92" x="175.88" y="130.89" width="29.57" height=".61"/>
    <rect class="cls-96" x="175.88" y="130.27" width="29.57" height=".61"/>
    <rect class="cls-104" x="175.88" y="129.66" width="29.57" height=".61"/>
    <rect class="cls-158" x="175.88" y="129.04" width="29.57" height=".61"/>
    <rect class="cls-122" x="175.88" y="128.43" width="29.57" height=".61"/>
    <rect class="cls-105" x="175.88" y="127.81" width="29.57" height=".61"/>
    <rect class="cls-44" x="175.88" y="127.2" width="29.57" height=".61"/>
    <rect class="cls-127" x="175.88" y="126.59" width="29.57" height=".61"/>
    <rect class="cls-72" x="175.88" y="125.97" width="29.57" height=".61"/>
    <rect class="cls-118" x="175.88" y="125.36" width="29.57" height=".61"/>
    <rect class="cls-33" x="175.88" y="124.74" width="29.57" height=".61"/>
    <rect class="cls-17" x="175.88" y="124.13" width="29.57" height=".61"/>
    <rect class="cls-40" x="175.88" y="123.52" width="29.57" height=".61"/>
    <rect class="cls-60" x="175.88" y="122.9" width="29.57" height=".61"/>
    <rect class="cls-148" x="175.88" y="122.29" width="29.57" height=".61"/>
    <rect class="cls-100" x="175.88" y="121.67" width="29.57" height=".61"/>
    <rect class="cls-53" x="175.88" y="121.06" width="29.57" height=".61"/>
    <rect class="cls-133" x="175.88" y="120.45" width="29.57" height=".61"/>
    <rect class="cls-121" x="175.88" y="119.83" width="29.57" height=".61"/>
    <rect class="cls-161" x="175.88" y="119.22" width="29.57" height=".61"/>
    <rect class="cls-168" x="175.88" y="118.69" width="29.57" height=".53"/>
    <rect class="cls-98" x="92.19" y="166.5" width="101.94" height="1.48"/>
    <rect class="cls-80" x="92.19" y="165.89" width="101.94" height=".61"/>
    <rect class="cls-169" x="92.19" y="165.28" width="101.94" height=".61"/>
    <rect class="cls-142" x="92.19" y="164.66" width="101.94" height=".61"/>
    <rect class="cls-155" x="92.19" y="164.05" width="101.94" height=".61"/>
    <rect class="cls-18" x="92.19" y="163.43" width="101.94" height=".61"/>
    <rect class="cls-162" x="92.19" y="162.82" width="101.94" height=".61"/>
    <rect class="cls-146" x="92.19" y="162.2" width="101.94" height=".61"/>
    <rect class="cls-87" x="92.19" y="161.59" width="101.94" height=".61"/>
    <rect class="cls-64" x="92.19" y="160.98" width="101.94" height=".61"/>
    <rect class="cls-42" x="92.19" y="160.36" width="101.94" height=".61"/>
    <rect class="cls-110" x="92.19" y="159.75" width="101.94" height=".61"/>
    <rect class="cls-57" x="92.19" y="159.13" width="101.94" height=".61"/>
    <rect class="cls-21" x="92.19" y="158.52" width="101.94" height=".61"/>
    <rect class="cls-5" x="92.19" y="157.91" width="101.94" height=".61"/>
    <rect class="cls-13" x="92.19" y="157.29" width="101.94" height=".61"/>
    <rect class="cls-128" x="92.19" y="156.68" width="101.94" height=".61"/>
    <rect class="cls-86" x="92.19" y="156.06" width="101.94" height=".61"/>
    <rect class="cls-12" x="92.19" y="155.45" width="101.94" height=".61"/>
    <rect class="cls-149" x="92.19" y="154.84" width="101.94" height=".61"/>
    <rect class="cls-41" x="92.19" y="154.22" width="101.94" height=".61"/>
    <rect class="cls-39" x="92.19" y="153.61" width="101.94" height=".61"/>
    <rect class="cls-14" x="92.19" y="152.99" width="101.94" height=".61"/>
    <rect class="cls-51" x="92.19" y="152.38" width="101.94" height=".61"/>
    <rect class="cls-125" x="92.19" y="151.77" width="101.94" height=".61"/>
    <rect class="cls-101" x="92.19" y="151.15" width="101.94" height=".61"/>
    <rect class="cls-45" x="92.19" y="150.54" width="101.94" height=".61"/>
    <rect class="cls-111" x="92.19" y="149.92" width="101.94" height=".61"/>
    <rect class="cls-88" x="92.19" y="149.31" width="101.94" height=".61"/>
    <rect class="cls-119" x="92.19" y="148.69" width="101.94" height=".61"/>
    <rect class="cls-9" x="92.19" y="148.08" width="101.94" height=".61"/>
    <rect class="cls-107" x="92.19" y="147.47" width="101.94" height=".61"/>
    <rect class="cls-15" x="92.19" y="146.85" width="101.94" height=".61"/>
    <rect class="cls-46" x="92.19" y="146.24" width="101.94" height=".61"/>
    <rect class="cls-69" x="92.19" y="145.62" width="101.94" height=".61"/>
    <rect class="cls-132" x="92.19" y="145.01" width="101.94" height=".61"/>
    <rect class="cls-48" x="92.19" y="144.4" width="101.94" height=".61"/>
    <rect class="cls-94" x="92.19" y="143.78" width="101.94" height=".61"/>
    <rect class="cls-68" x="92.19" y="143.17" width="101.94" height=".61"/>
    <rect class="cls-89" x="92.19" y="142.55" width="101.94" height=".61"/>
    <rect class="cls-130" x="92.19" y="141.94" width="101.94" height=".61"/>
    <rect class="cls-113" x="92.19" y="141.33" width="101.94" height=".61"/>
    <rect class="cls-32" x="92.19" y="140.71" width="101.94" height=".61"/>
    <rect class="cls-91" x="92.19" y="140.1" width="101.94" height=".61"/>
    <rect class="cls-3" x="92.19" y="139.48" width="101.94" height=".61"/>
    <rect class="cls-26" x="92.19" y="138.87" width="101.94" height=".61"/>
    <rect class="cls-36" x="92.19" y="138.25" width="101.94" height=".61"/>
    <rect class="cls-35" x="92.19" y="137.64" width="101.94" height=".61"/>
    <rect class="cls-93" x="92.19" y="137.03" width="101.94" height=".61"/>
    <rect class="cls-8" x="92.19" y="136.41" width="101.94" height=".61"/>
    <rect class="cls-50" x="92.19" y="135.8" width="101.94" height=".61"/>
    <rect class="cls-78" x="92.19" y="135.18" width="101.94" height=".61"/>
    <rect class="cls-164" x="92.19" y="134.57" width="101.94" height=".61"/>
    <rect class="cls-135" x="92.19" y="133.96" width="101.94" height=".61"/>
    <rect class="cls-22" x="92.19" y="133.34" width="101.94" height=".61"/>
    <rect class="cls-4" x="92.19" y="132.73" width="101.94" height=".61"/>
    <rect class="cls-54" x="92.19" y="132.11" width="101.94" height=".61"/>
    <rect class="cls-31" x="92.19" y="131.5" width="101.94" height=".61"/>
    <rect class="cls-92" x="92.19" y="130.89" width="101.94" height=".61"/>
    <rect class="cls-96" x="92.19" y="130.27" width="101.94" height=".61"/>
    <rect class="cls-104" x="92.19" y="129.66" width="101.94" height=".61"/>
    <rect class="cls-158" x="92.19" y="129.04" width="101.94" height=".61"/>
    <rect class="cls-122" x="92.19" y="128.43" width="101.94" height=".61"/>
    <rect class="cls-105" x="92.19" y="127.81" width="101.94" height=".61"/>
    <rect class="cls-44" x="92.19" y="127.2" width="101.94" height=".61"/>
    <rect class="cls-127" x="92.19" y="126.59" width="101.94" height=".61"/>
    <rect class="cls-72" x="92.19" y="125.97" width="101.94" height=".61"/>
    <rect class="cls-118" x="92.19" y="125.36" width="101.94" height=".61"/>
    <rect class="cls-33" x="92.19" y="124.74" width="101.94" height=".61"/>
    <rect class="cls-17" x="92.19" y="124.13" width="101.94" height=".61"/>
    <rect class="cls-40" x="92.19" y="123.52" width="101.94" height=".61"/>
    <rect class="cls-60" x="92.19" y="122.9" width="101.94" height=".61"/>
    <rect class="cls-148" x="92.19" y="122.29" width="101.94" height=".61"/>
    <rect class="cls-100" x="92.19" y="121.67" width="101.94" height=".61"/>
    <rect class="cls-53" x="92.19" y="121.06" width="101.94" height=".61"/>
    <rect class="cls-133" x="92.19" y="120.45" width="101.94" height=".61"/>
    <rect class="cls-121" x="92.19" y="119.83" width="101.94" height=".61"/>
    <rect class="cls-161" x="92.19" y="119.22" width="101.94" height=".61"/>
    <rect class="cls-168" x="92.19" y="118.6" width="101.94" height=".61"/>
    <rect class="cls-84" x="92.19" y="117.99" width="101.94" height=".61"/>
    <rect class="cls-74" x="92.19" y="117.38" width="101.94" height=".61"/>
    <rect class="cls-70" x="92.19" y="116.76" width="101.94" height=".61"/>
    <rect class="cls-73" x="92.19" y="116.15" width="101.94" height=".61"/>
    <rect class="cls-124" x="92.19" y="115.53" width="101.94" height=".61"/>
    <rect class="cls-145" x="92.19" y="114.92" width="101.94" height=".61"/>
    <rect class="cls-7" x="92.19" y="114.3" width="101.94" height=".61"/>
    <rect class="cls-99" x="92.19" y="113.69" width="101.94" height=".61"/>
    <rect class="cls-55" x="92.19" y="113.08" width="101.94" height=".61"/>
    <rect class="cls-67" x="92.19" y="112.46" width="101.94" height=".61"/>
    <rect class="cls-144" x="92.19" y="111.85" width="101.94" height=".61"/>
    <rect class="cls-163" x="92.19" y="111.23" width="101.94" height=".61"/>
    <rect class="cls-23" x="92.19" y="110.62" width="101.94" height=".61"/>
    <rect class="cls-114" x="92.19" y="110.01" width="101.94" height=".61"/>
    <rect class="cls-143" x="92.19" y="109.39" width="101.94" height=".61"/>
    <rect class="cls-37" x="92.19" y="108.78" width="101.94" height=".61"/>
    <rect class="cls-75" x="92.19" y="108.16" width="101.94" height=".61"/>
    <rect class="cls-156" x="92.19" y="107.55" width="101.94" height=".61"/>
    <rect class="cls-71" x="92.19" y="106.94" width="101.94" height=".61"/>
    <rect class="cls-136" x="92.19" y="106.32" width="101.94" height=".61"/>
    <rect class="cls-28" x="92.19" y="105.71" width="101.94" height=".61"/>
    <rect class="cls-147" x="92.19" y="105.09" width="101.94" height=".61"/>
    <rect class="cls-59" x="92.19" y="104.48" width="101.94" height=".61"/>
    <rect class="cls-38" x="92.19" y="103.86" width="101.94" height=".61"/>
    <rect class="cls-77" x="92.19" y="103.25" width="101.94" height=".61"/>
    <rect class="cls-120" x="92.19" y="102.64" width="101.94" height=".61"/>
    <rect class="cls-154" x="92.19" y="102.02" width="101.94" height=".61"/>
    <rect class="cls-157" x="92.19" y="101.41" width="101.94" height=".61"/>
    <rect class="cls-134" x="92.19" y="100.79" width="101.94" height=".61"/>
    <rect class="cls-65" x="92.19" y="100.18" width="101.94" height=".61"/>
    <rect class="cls-24" x="92.19" y="99.57" width="101.94" height=".61"/>
    <rect class="cls-123" x="92.19" y="98.95" width="101.94" height=".61"/>
    <rect class="cls-131" x="92.19" y="98.34" width="101.94" height=".61"/>
    <rect class="cls-20" x="92.19" y="97.72" width="101.94" height=".61"/>
    <rect class="cls-165" x="92.19" y="97.11" width="101.94" height=".61"/>
    <rect class="cls-150" x="92.19" y="96.5" width="101.94" height=".61"/>
    <rect class="cls-160" x="92.19" y="95.88" width="101.94" height=".61"/>
    <rect class="cls-49" x="92.19" y="95.27" width="101.94" height=".61"/>
    <rect class="cls-47" x="92.19" y="94.65" width="101.94" height=".61"/>
    <rect class="cls-159" x="92.19" y="94.04" width="101.94" height=".61"/>
    <rect class="cls-29" x="92.19" y="93.43" width="101.94" height=".61"/>
    <rect class="cls-6" x="92.19" y="92.81" width="101.94" height=".61"/>
    <rect class="cls-90" x="92.19" y="92.2" width="101.94" height=".61"/>
    <rect class="cls-10" x="92.19" y="91.58" width="101.94" height=".61"/>
    <rect class="cls-138" x="92.19" y="90.97" width="101.94" height=".61"/>
    <rect class="cls-43" x="92.19" y="90.35" width="101.94" height=".61"/>
    <rect class="cls-62" x="92.19" y="89.74" width="101.94" height=".61"/>
    <rect class="cls-109" x="92.19" y="89.13" width="101.94" height=".61"/>
    <rect class="cls-126" x="92.19" y="88.51" width="101.94" height=".61"/>
    <rect class="cls-139" x="92.19" y="87.9" width="101.94" height=".61"/>
    <rect class="cls-52" x="92.19" y="87.28" width="101.94" height=".61"/>
    <rect class="cls-58" x="92.19" y="86.67" width="101.94" height=".61"/>
    <rect class="cls-152" x="92.19" y="86.06" width="101.94" height=".61"/>
    <rect class="cls-11" x="92.19" y="85.44" width="101.94" height=".61"/>
    <rect class="cls-167" x="92.19" y="84.83" width="101.94" height=".61"/>
    <rect class="cls-137" x="92.19" y="84.21" width="101.94" height=".61"/>
    <rect class="cls-2" x="92.19" y="83.6" width="101.94" height=".61"/>
    <rect class="cls-112" x="92.19" y="82.99" width="101.94" height=".61"/>
    <rect class="cls-97" x="92.19" y="82.37" width="101.94" height=".61"/>
    <rect class="cls-116" x="92.19" y="81.76" width="101.94" height=".61"/>
    <rect class="cls-79" x="92.19" y="81.14" width="101.94" height=".61"/>
    <rect class="cls-61" x="92.19" y="80.53" width="101.94" height=".61"/>
    <rect class="cls-34" x="92.19" y="79.91" width="101.94" height=".61"/>
    <rect class="cls-82" x="92.19" y="79.3" width="101.94" height=".61"/>
    <rect class="cls-19" x="92.19" y="78.69" width="101.94" height=".61"/>
    <rect class="cls-25" x="92.19" y="78.07" width="101.94" height=".61"/>
    <rect class="cls-140" x="92.19" y="77.46" width="101.94" height=".61"/>
    <rect class="cls-103" x="92.19" y="76.84" width="101.94" height=".61"/>
    <rect class="cls-63" x="92.19" y="76.23" width="101.94" height=".61"/>
    <rect class="cls-108" x="92.19" y="75.62" width="101.94" height=".61"/>
    <rect class="cls-81" x="92.19" y="75" width="101.94" height=".61"/>
    <rect class="cls-151" x="92.19" y="74.39" width="101.94" height=".61"/>
    <rect class="cls-141" x="92.19" y="73.77" width="101.94" height=".61"/>
    <rect class="cls-95" x="92.19" y="73.16" width="101.94" height=".61"/>
    <rect class="cls-166" x="92.19" y="72.55" width="101.94" height=".61"/>
    <rect class="cls-153" x="92.19" y="71.93" width="101.94" height=".61"/>
    <rect class="cls-85" x="92.19" y="71.32" width="101.94" height=".61"/>
    <rect class="cls-129" x="92.19" y="70.7" width="101.94" height=".61"/>
    <rect class="cls-102" x="92.19" y="70.09" width="101.94" height=".61"/>
    <rect class="cls-117" x="92.19" y="69.47" width="101.94" height=".61"/>
    <rect class="cls-27" x="92.19" y="68.86" width="101.94" height=".61"/>
    <rect class="cls-56" x="92.19" y="68.25" width="101.94" height=".61"/>
    <rect class="cls-16" x="92.19" y="67.63" width="101.94" height=".61"/>
    <rect class="cls-1" x="92.19" y="67.02" width="101.94" height=".61"/>
    <rect class="cls-83" x="92.19" y="66.4" width="101.94" height=".61"/>
    <rect class="cls-30" x="92.19" y="65.79" width="101.94" height=".61"/>
    <rect class="cls-66" x="92.19" y="65.18" width="101.94" height=".61"/>
    <rect class="cls-76" x="92.19" y="64.56" width="101.94" height=".61"/>
  </g>
</svg>